<svg width="319" height="220" viewBox="0 0 319 220" fill="none" xmlns="http://www.w3.org/2000/svg">
<g clip-path="url(#clip0)">
<path opacity="0.1" d="M185.379 34.8057C164.936 34.1038 145.465 27.5744 126.87 20.4326C108.276 13.2909 89.8596 5.3773 69.9025 1.59388C57.0699 -0.841707 42.3911 -1.18565 32.0493 5.62057C22.0976 12.1695 18.8831 23.475 17.1528 33.9668C15.8523 41.8608 15.089 50.1659 18.6512 57.5565C21.125 62.685 25.5185 66.9969 28.5464 71.91C39.1172 89.0095 31.6563 110.091 20.1892 126.788C14.8176 134.617 8.58081 142.089 4.43615 150.425C0.291498 158.761 -1.61968 168.313 2.02456 176.831C5.62074 185.259 14.1815 191.589 23.4744 196.044C42.3148 205.073 64.5337 207.663 86.1984 209.128C134.159 212.372 182.376 210.968 230.464 209.561C248.258 209.038 266.135 208.513 283.641 205.789C293.363 204.279 303.4 201.874 310.459 196.089C319.419 188.737 321.641 176.288 315.636 167.069C305.565 151.605 277.72 147.774 270.684 131.169C266.808 122.037 270.788 111.861 276.42 103.391C288.498 85.2149 308.743 69.2759 309.809 48.5021C310.544 34.2408 300.81 19.9461 285.761 13.1958C269.985 6.12111 248.114 7.01034 236.475 18.7241C224.49 30.7846 203.43 35.4237 185.379 34.8057Z" fill="#EA4C4C"/>
<path d="M255.193 190.683C254.046 190.316 252.834 190.189 251.634 190.309C250.172 190.465 250.378 192.666 251.846 192.563C252.58 192.506 253.305 192.374 254.011 192.168L255.193 190.683Z" fill="#EA4C4C"/>
<path d="M255.637 190.703C256.165 191.776 256.462 192.947 256.508 194.14C256.556 195.594 254.322 195.697 254.221 194.246C254.177 193.519 254.209 192.79 254.317 192.07L255.637 190.703Z" fill="#EA4C4C"/>
<path d="M258.962 185.994C258.962 185.994 258.247 183.774 253.873 184.635C251.894 185.024 251.948 187.831 253.929 188.128H254.014C256.901 188.525 257.904 187.392 258.962 185.994Z" fill="#EA4C4C"/>
<path d="M259.417 185.863C259.417 185.863 261.766 186.044 261.913 190.449C261.981 192.431 259.208 193.032 258.464 191.192C258.464 191.164 258.444 191.139 258.433 191.111C257.396 188.424 258.281 187.199 259.417 185.863Z" fill="#EA4C4C"/>
<path d="M262.555 180.186C262.39 179.38 262.011 178.633 261.456 178.02C260.901 177.408 260.192 176.953 259.4 176.702C256.44 175.779 254.877 180.158 257.769 181.271C258.966 181.703 260.24 181.886 261.512 181.808L262.555 180.186Z" fill="#EA4C4C"/>
<path d="M266.166 172.874C266.166 172.874 264.97 170.077 261.868 169.518C258.58 168.922 257.585 173.808 260.833 174.588C262.291 174.901 263.798 174.913 265.261 174.624L266.166 172.874Z" fill="#EA4C4C"/>
<path d="M268.345 165.673C267.839 164.886 267.177 164.208 266.4 163.68C265.623 163.151 264.746 162.783 263.822 162.597C260.995 162.072 260.042 166.258 262.818 166.974C264.562 167.395 266.385 167.37 268.116 166.901L268.345 165.673Z" fill="#EA4C4C"/>
<path d="M270.401 158.654C269.499 157.184 268.095 156.08 266.443 155.542C263.615 154.684 262.219 158.923 265.029 159.846C266.695 160.392 268.496 160.386 270.158 159.826L270.401 158.654Z" fill="#EA4C4C"/>
<path d="M271.266 152.259C271.266 152.259 270.135 149.636 267.831 148.249C265.264 146.703 262.818 150.486 265.286 152.189C266.807 153.244 268.755 153.971 271.031 153.484L271.266 152.259Z" fill="#EA4C4C"/>
<path d="M271.693 144.673C271.693 144.673 270.446 142.025 268.054 140.758C265.38 139.36 263.053 143.224 265.572 144.891C267.22 145.979 269.278 146.683 271.464 145.833L271.693 144.673Z" fill="#EA4C4C"/>
<path d="M271.427 137.755C270.494 136.323 269.351 135.037 268.034 133.938C266.163 132.425 263.793 135.149 265.566 136.765C267.203 138.25 269.242 139.497 271.348 139.396L271.427 137.755Z" fill="#EA4C4C"/>
<path d="M270.717 131.116C269.649 129.333 268.361 127.688 266.884 126.217C265.419 124.819 263.254 126.95 264.622 128.424C266.202 130.101 268.334 131.841 270.895 132.601L270.717 131.116Z" fill="#EA4C4C"/>
<path d="M269.346 123.309C268.465 121.954 267.438 120.697 266.284 119.559C264.808 118.13 262.583 120.281 264 121.765C265.504 123.345 267.449 124.825 269.731 125.328L269.346 123.309Z" fill="#EA4C4C"/>
<path d="M268.147 116.025C267.241 114.811 266.258 113.656 265.204 112.566C264.023 111.36 262.134 113.055 263.248 114.325C264.557 115.818 266.236 117.14 268.167 117.353L268.147 116.025Z" fill="#EA4C4C"/>
<path d="M266.903 109.269C266.077 107.669 265.132 106.131 264.076 104.669C263.191 103.472 261.348 104.753 262.182 105.983C263.273 107.597 264.789 109.193 266.779 109.962L266.903 109.269Z" fill="#EA4C4C"/>
<path d="M265.877 100.29C265.877 100.29 265.179 99.1181 264.181 97.7563C263.259 96.5007 261.314 97.7982 262.168 99.0985C263.129 100.555 264.333 101.797 265.736 102.043L265.877 100.29Z" fill="#EA4C4C"/>
<path d="M265.388 94.3392L264.503 89.963C264.268 88.8054 262.524 89.0822 262.665 90.2427C262.982 92.5804 263.796 94.9321 265.569 96.4756L265.388 94.3392Z" fill="#EA4C4C"/>
<path d="M265.914 81.9012C265.832 81.7077 265.68 81.5509 265.489 81.4603C265.297 81.3696 265.079 81.3516 264.875 81.4094C264.671 81.4673 264.495 81.5971 264.382 81.7742C264.268 81.9514 264.223 82.1637 264.257 82.371C264.454 83.5866 264.753 84.7838 265.151 85.9503L265.914 81.9012Z" fill="#EA4C4C"/>
<path d="M262.753 180.099C263.543 179.842 264.388 179.797 265.201 179.97C266.014 180.143 266.766 180.527 267.378 181.084C269.64 183.173 266.581 186.676 264.17 184.75C263.198 183.935 262.406 182.93 261.843 181.8L262.753 180.099Z" fill="#EA4C4C"/>
<path d="M266.366 172.608C266.366 172.608 269.34 171.898 271.642 174.029C274.082 176.288 270.709 179.988 268.139 177.871C267.016 176.899 266.108 175.708 265.473 174.373L266.366 172.608Z" fill="#EA4C4C"/>
<path d="M268.54 166.165C269.309 165.621 270.181 165.236 271.104 165.033C272.027 164.83 272.982 164.814 273.912 164.985C276.739 165.545 276.035 169.775 273.188 169.415C271.412 169.16 269.731 168.462 268.303 167.387L268.54 166.165Z" fill="#EA4C4C"/>
<path d="M270.542 158.694C271.932 157.662 273.648 157.155 275.382 157.265C278.339 157.519 278.023 161.962 275.063 161.778C273.31 161.67 271.642 160.997 270.313 159.862L270.542 158.694Z" fill="#EA4C4C"/>
<path d="M271.229 152.441C271.229 152.441 272.798 150.047 275.303 149.069C278.082 147.981 279.866 152.1 277.166 153.367C275.47 154.158 273.426 154.558 271.254 153.688L271.229 152.441Z" fill="#EA4C4C"/>
<path d="M271.328 144.558C271.328 144.558 272.914 142.097 275.45 141.158C278.277 140.109 280.084 144.248 277.367 145.576C275.589 146.443 273.454 146.874 271.401 145.749L271.328 144.558Z" fill="#EA4C4C"/>
<path d="M270.796 137.682C271.398 136.086 272.236 134.588 273.284 133.236C274.783 131.36 277.698 133.516 276.307 135.473C275.029 137.271 273.321 138.918 271.218 139.268L270.796 137.682Z" fill="#EA4C4C"/>
<path d="M270.579 131.105C271.099 129.093 271.87 127.152 272.874 125.328C273.889 123.589 276.567 125.029 275.656 126.824C274.616 128.879 273.055 131.13 270.811 132.571L270.579 131.105Z" fill="#EA4C4C"/>
<path d="M268.939 122.946C269.55 121.394 270.333 119.915 271.274 118.536C272.439 116.858 275.02 118.502 273.954 120.236C272.795 122.126 271.161 124.028 268.97 124.99L268.939 122.946Z" fill="#EA4C4C"/>
<path d="M267.633 115.986C267.948 114.51 268.357 113.056 268.857 111.632C269.422 110.046 271.857 110.812 271.376 112.426C270.811 114.322 269.841 116.215 268.176 117.202L267.633 115.986Z" fill="#EA4C4C"/>
<path d="M266.725 109.137C267.162 107.391 267.729 105.68 268.422 104.017C269.01 102.653 271.102 103.483 270.57 104.87C269.88 106.688 268.772 108.584 267.014 109.78L266.725 109.137Z" fill="#EA4C4C"/>
<path d="M265.365 100.905C265.365 100.905 265.631 99.5711 266.115 97.9577C266.561 96.47 268.834 97.0545 268.464 98.5617C268.051 100.239 267.333 101.819 266.089 102.513L265.365 100.905Z" fill="#EA4C4C"/>
<path d="M265.682 94.0428L267.22 89.8483C267.627 88.7298 269.323 89.2723 268.993 90.4076C268.328 92.6726 267.175 94.8817 265.182 96.1401L265.682 94.0428Z" fill="#EA4C4C"/>
<path d="M267.599 82.3402C267.599 82.3402 267.839 82.1501 268.207 81.8509C268.956 81.2357 269.934 82.3095 269.227 82.9694C267.997 84.0757 266.582 84.9631 265.046 85.5924L267.599 82.3402Z" fill="#EA4C4C"/>
<path d="M267.497 79.9103C268.416 78.054 269.44 76.2503 270.565 74.5078C270.629 74.3877 270.647 74.2484 270.615 74.1161C270.583 73.9838 270.504 73.8675 270.391 73.789C270.279 73.7105 270.142 73.6751 270.005 73.6896C269.868 73.704 269.742 73.7673 269.649 73.8675C268.744 75.0922 267.856 76.8847 267.183 79.5188L267.497 79.9103Z" fill="#EA4C4C"/>
<path d="M265.744 102.113L266.072 102.079C264.659 89.0458 265.255 81.0092 267.726 79.4517L267.548 79.172C264.93 80.8302 264.308 88.7606 265.744 102.113Z" fill="#444053"/>
<path d="M270.607 132.928L271.096 132.856C270.912 131.65 270.7 130.426 270.463 129.22C268.405 118.642 266.804 108.863 266.004 101.436L265.645 101.157C266.448 108.598 267.907 118.715 269.979 129.307C270.211 130.504 270.423 131.726 270.607 132.928Z" fill="#444053"/>
<path d="M247.707 198.804C247.78 198.745 255.312 193.046 261.925 182.116C265.801 175.719 268.625 168.754 270.293 161.482C272.382 152.391 272.442 141.804 270.935 131.888L270.494 132.238C273.887 154.491 267.415 171.769 261.376 181.758C254.828 192.588 247.385 198.228 247.308 198.284L247.707 198.804Z" fill="#444053"/>
<path d="M54.8531 198.754C65.2443 198.754 73.668 197.151 73.668 195.174C73.668 193.198 65.2443 191.595 54.8531 191.595C44.4619 191.595 36.0381 193.198 36.0381 195.174C36.0381 197.151 44.4619 198.754 54.8531 198.754Z" fill="#EA4C4C"/>
<path d="M54.5364 196.489C55.7465 196.489 56.7275 195.219 56.7275 193.653C56.7275 192.087 55.7465 190.818 54.5364 190.818C53.3263 190.818 52.3454 192.087 52.3454 193.653C52.3454 195.219 53.3263 196.489 54.5364 196.489Z" fill="#0E2431"/>
<path d="M54.5364 193.021C55.7465 193.021 56.7275 191.752 56.7275 190.186C56.7275 188.62 55.7465 187.35 54.5364 187.35C53.3263 187.35 52.3454 188.62 52.3454 190.186C52.3454 191.752 53.3263 193.021 54.5364 193.021Z" fill="#0E2431"/>
<path d="M54.5364 189.557C55.7465 189.557 56.7275 188.287 56.7275 186.721C56.7275 185.155 55.7465 183.886 54.5364 183.886C53.3263 183.886 52.3454 185.155 52.3454 186.721C52.3454 188.287 53.3263 189.557 54.5364 189.557Z" fill="#0E2431"/>
<path d="M54.5364 186.089C55.7465 186.089 56.7275 184.82 56.7275 183.254C56.7275 181.688 55.7465 180.418 54.5364 180.418C53.3263 180.418 52.3454 181.688 52.3454 183.254C52.3454 184.82 53.3263 186.089 54.5364 186.089Z" fill="#0E2431"/>
<path d="M54.5364 182.622C55.7465 182.622 56.7275 181.352 56.7275 179.786C56.7275 178.22 55.7465 176.951 54.5364 176.951C53.3263 176.951 52.3454 178.22 52.3454 179.786C52.3454 181.352 53.3263 182.622 54.5364 182.622Z" fill="#0E2431"/>
<path d="M54.5364 179.157C55.7465 179.157 56.7275 177.888 56.7275 176.322C56.7275 174.756 55.7465 173.486 54.5364 173.486C53.3263 173.486 52.3454 174.756 52.3454 176.322C52.3454 177.888 53.3263 179.157 54.5364 179.157Z" fill="#0E2431"/>
<path d="M54.5364 175.69C55.7465 175.69 56.7275 174.42 56.7275 172.854C56.7275 171.288 55.7465 170.019 54.5364 170.019C53.3263 170.019 52.3454 171.288 52.3454 172.854C52.3454 174.42 53.3263 175.69 54.5364 175.69Z" fill="#0E2431"/>
<path d="M62.7353 149.13C63.0355 148.754 63.3086 148.356 63.5523 147.942L57.7962 147.008L64.016 147.053C64.6136 145.768 64.9396 144.376 64.9741 142.962C65.0086 141.549 64.7509 140.143 64.2167 138.831L55.8652 143.115L63.5665 137.523C62.8464 136.286 61.8764 135.21 60.717 134.361C59.5577 133.513 58.2338 132.909 56.8281 132.589C55.4225 132.269 53.9652 132.239 52.5472 132.501C51.1292 132.763 49.7811 133.311 48.5869 134.111C47.3927 134.911 46.3781 135.946 45.6064 137.152C44.8348 138.357 44.3227 139.707 44.102 141.117C43.8814 142.527 43.957 143.966 44.3242 145.346C44.6913 146.726 45.3421 148.016 46.2358 149.136C45.7702 149.723 45.3693 150.358 45.0399 151.029L52.5122 154.868L44.5508 152.223C43.992 153.859 43.8545 155.606 44.1507 157.308C44.4469 159.01 45.1674 160.611 46.2471 161.968C45.029 163.499 44.271 165.338 44.0599 167.275C43.8489 169.212 44.1932 171.169 45.0535 172.921C45.9138 174.674 47.2554 176.151 48.9249 177.185C50.5944 178.219 52.5243 178.767 54.494 178.767C56.4637 178.767 58.3937 178.219 60.0631 177.185C61.7326 176.151 63.0742 174.674 63.9346 172.921C64.7949 171.169 65.1392 169.212 64.9281 167.275C64.717 165.338 63.9591 163.499 62.7409 161.968C64.1967 160.139 64.9883 157.879 64.9883 155.552C64.9883 153.224 64.1967 150.965 62.7409 149.136L62.7353 149.13Z" fill="#EA4C4C"/>
<path opacity="0.1" d="M43.9967 155.548C43.9943 157.875 44.7851 160.135 46.2415 161.962C45.0233 163.493 44.2654 165.333 44.0543 167.269C43.8432 169.206 44.1875 171.163 45.0478 172.916C45.9082 174.668 47.2498 176.146 48.9193 177.18C50.5887 178.213 52.5187 178.762 54.4884 178.762C56.4581 178.762 58.388 178.213 60.0575 177.18C61.727 176.146 63.0686 174.668 63.9289 172.916C64.7892 171.163 65.1335 169.206 64.9224 167.269C64.7114 165.333 63.9534 163.493 62.7353 161.962C64.1432 160.198 43.9967 154.382 43.9967 155.548Z" fill="black"/>
<path d="M65.5823 73.0509V196.567C65.5823 197.133 65.695 197.694 65.9141 198.217C66.1332 198.74 66.4543 199.215 66.8592 199.616C67.264 200.016 67.7446 200.334 68.2735 200.551C68.8024 200.767 69.3693 200.879 69.9418 200.879H249.149C250.305 200.879 251.414 200.425 252.231 199.616C253.049 198.807 253.508 197.71 253.508 196.567V73.0509H65.5823Z" fill="white"/>
<path opacity="0.1" d="M122.932 84.1075H82.8988C81.5481 84.1075 80.4532 85.1904 80.4532 86.5263V107.77C80.4532 109.106 81.5481 110.189 82.8988 110.189H122.932C124.282 110.189 125.377 109.106 125.377 107.77V86.5263C125.377 85.1904 124.282 84.1075 122.932 84.1075Z" fill="black"/>
<path opacity="0.1" d="M179.563 84.1075H139.53C138.18 84.1075 137.085 85.1904 137.085 86.5263V107.77C137.085 109.106 138.18 110.189 139.53 110.189H179.563C180.914 110.189 182.009 109.106 182.009 107.77V86.5263C182.009 85.1904 180.914 84.1075 179.563 84.1075Z" fill="black"/>
<path d="M122.298 84.4738H83.5293C82.1786 84.4738 81.0837 85.5568 81.0837 86.8927V107.401C81.0837 108.737 82.1786 109.82 83.5293 109.82H122.298C123.649 109.82 124.744 108.737 124.744 107.401V86.8927C124.744 85.5568 123.649 84.4738 122.298 84.4738Z" fill="#EA4C4C"/>
<path opacity="0.1" d="M196.792 109.82H235.561C236.912 109.82 238.007 108.737 238.007 107.401V86.8927C238.007 85.5568 236.912 84.4739 235.561 84.4739H196.792C195.441 84.4739 194.346 85.5568 194.346 86.8927V107.401C194.346 108.737 195.441 109.82 196.792 109.82Z" fill="#444053"/>
<path d="M140.161 109.82H178.93C180.28 109.82 181.375 108.737 181.375 107.401V86.8927C181.375 85.5568 180.28 84.4739 178.93 84.4739H140.161C138.81 84.4739 137.715 85.5568 137.715 86.8927V107.401C137.715 108.737 138.81 109.82 140.161 109.82Z" fill="#EA4C4C"/>
<path opacity="0.1" d="M122.298 121.086H83.5293C82.1786 121.086 81.0837 122.169 81.0837 123.505V144.013C81.0837 145.349 82.1786 146.432 83.5293 146.432H122.298C123.649 146.432 124.744 145.349 124.744 144.013V123.505C124.744 122.169 123.649 121.086 122.298 121.086Z" fill="#444053"/>
<path opacity="0.1" d="M196.792 146.432H235.561C236.912 146.432 238.007 145.349 238.007 144.013V123.505C238.007 122.169 236.912 121.086 235.561 121.086H196.792C195.441 121.086 194.346 122.169 194.346 123.505V144.013C194.346 145.349 195.441 146.432 196.792 146.432Z" fill="#444053"/>
<path opacity="0.1" d="M140.161 146.432H178.93C180.28 146.432 181.375 145.349 181.375 144.013V123.505C181.375 122.169 180.28 121.086 178.93 121.086H140.161C138.81 121.086 137.715 122.169 137.715 123.505V144.013C137.715 145.349 138.81 146.432 140.161 146.432Z" fill="#444053"/>
<path opacity="0.1" d="M122.298 157.698H83.5293C82.1786 157.698 81.0837 158.781 81.0837 160.117V180.625C81.0837 181.961 82.1786 183.044 83.5293 183.044H122.298C123.649 183.044 124.744 181.961 124.744 180.625V160.117C124.744 158.781 123.649 157.698 122.298 157.698Z" fill="#444053"/>
<path opacity="0.1" d="M196.792 183.047H235.561C236.912 183.047 238.007 181.964 238.007 180.628V160.12C238.007 158.784 236.912 157.701 235.561 157.701H196.792C195.441 157.701 194.346 158.784 194.346 160.12V180.628C194.346 181.964 195.441 183.047 196.792 183.047Z" fill="#444053"/>
<path opacity="0.1" d="M140.161 183.047H178.93C180.28 183.047 181.375 181.964 181.375 180.628V160.12C181.375 158.784 180.28 157.701 178.93 157.701H140.161C138.81 157.701 137.715 158.784 137.715 160.12V180.628C137.715 181.964 138.81 183.047 140.161 183.047Z" fill="#444053"/>
<path d="M65.5823 51.2368V73.6773H253.508V51.2368C253.509 50.6704 253.396 50.1093 253.177 49.5859C252.958 49.0624 252.637 48.5867 252.232 48.186C251.828 47.7853 251.347 47.4675 250.818 47.2506C250.289 47.0337 249.721 46.9221 249.149 46.9221H69.9418C69.3691 46.9221 68.8019 47.0337 68.2728 47.2506C67.7437 47.4675 67.263 47.7853 66.8582 48.186C66.4533 48.5867 66.1322 49.0624 65.9133 49.5859C65.6944 50.1093 65.5819 50.6704 65.5823 51.2368ZM112.09 57.8753C111.401 57.8753 110.728 57.6734 110.156 57.2952C109.584 56.9169 109.138 56.3793 108.874 55.7503C108.611 55.1213 108.542 54.4292 108.676 53.7615C108.81 53.0937 109.142 52.4804 109.629 51.999C110.115 51.5176 110.735 51.1897 111.411 51.0569C112.086 50.9241 112.785 50.9922 113.421 51.2528C114.057 51.5133 114.601 51.9545 114.983 52.5206C115.366 53.0867 115.57 53.7522 115.57 54.433C115.57 55.346 115.203 56.2215 114.55 56.8671C113.898 57.5126 113.013 57.8753 112.09 57.8753ZM207.001 57.8753C206.313 57.8753 205.64 57.6734 205.067 57.2952C204.495 56.9169 204.049 56.3793 203.786 55.7503C203.522 55.1213 203.453 54.4292 203.588 53.7615C203.722 53.0937 204.053 52.4804 204.54 51.999C205.027 51.5176 205.647 51.1897 206.322 51.0569C206.997 50.9241 207.697 50.9922 208.333 51.2528C208.969 51.5133 209.512 51.9545 209.895 52.5206C210.277 53.0867 210.481 53.7522 210.481 54.433C210.481 54.8855 210.391 55.3336 210.216 55.7516C210.041 56.1696 209.784 56.5493 209.46 56.869C209.136 57.1888 208.752 57.4422 208.329 57.6149C207.906 57.7875 207.453 57.876 206.995 57.8753H207.001Z" fill="#EA4C4C"/>
<path opacity="0.1" d="M112.089 50.3644C111.276 50.3639 110.48 50.602 109.803 51.0487C109.126 51.4955 108.599 52.1307 108.287 52.8741C107.975 53.6175 107.893 54.4357 108.052 55.2251C108.21 56.0145 108.602 56.7397 109.177 57.309C109.752 57.8783 110.485 58.2661 111.283 58.4233C112.081 58.5805 112.908 58.5001 113.66 58.1922C114.412 57.8844 115.055 57.3629 115.507 56.6937C115.959 56.0246 116.2 55.2379 116.2 54.433C116.201 53.8989 116.095 53.3699 115.888 52.8763C115.682 52.3826 115.379 51.9341 114.997 51.5563C114.615 51.1784 114.162 50.8787 113.663 50.6742C113.164 50.4697 112.63 50.3644 112.089 50.3644ZM112.089 57.8753C111.401 57.8753 110.728 57.6734 110.156 57.2952C109.584 56.9169 109.138 56.3793 108.874 55.7503C108.611 55.1214 108.542 54.4292 108.676 53.7615C108.81 53.0938 109.142 52.4804 109.629 51.999C110.115 51.5176 110.735 51.1897 111.411 51.0569C112.086 50.9241 112.785 50.9923 113.421 51.2528C114.057 51.5133 114.601 51.9546 114.983 52.5206C115.366 53.0867 115.57 53.7522 115.57 54.433C115.57 55.346 115.203 56.2215 114.55 56.8671C113.898 57.5126 113.012 57.8753 112.089 57.8753Z" fill="black"/>
<path opacity="0.1" d="M206.995 50.3644C206.182 50.3644 205.386 50.603 204.71 51.0501C204.034 51.4972 203.506 52.1326 203.195 52.876C202.884 53.6195 202.802 54.4376 202.961 55.2268C203.12 56.016 203.511 56.741 204.087 57.31C204.662 57.879 205.395 58.2665 206.193 58.4235C206.991 58.5805 207.818 58.4999 208.57 58.192C209.321 57.884 209.964 57.3625 210.416 56.6935C210.868 56.0244 211.109 55.2377 211.109 54.433C211.109 53.354 210.675 52.3191 209.904 51.5561C209.133 50.7931 208.086 50.3644 206.995 50.3644ZM206.995 57.8753C206.307 57.8753 205.634 57.6734 205.062 57.2952C204.49 56.9169 204.043 56.3793 203.78 55.7503C203.517 55.1213 203.448 54.4292 203.582 53.7615C203.716 53.0938 204.048 52.4804 204.534 51.999C205.021 51.5176 205.641 51.1897 206.316 51.0569C206.991 50.9241 207.691 50.9923 208.327 51.2528C208.963 51.5133 209.507 51.9545 209.889 52.5206C210.271 53.0867 210.476 53.7522 210.476 54.433C210.476 55.346 210.109 56.2215 209.456 56.8671C208.804 57.5126 207.918 57.8753 206.995 57.8753Z" fill="black"/>
<path opacity="0.1" d="M292.077 121.698C294.461 121.698 296.394 119.787 296.394 117.428C296.394 115.07 294.461 113.158 292.077 113.158C289.692 113.158 287.76 115.07 287.76 117.428C287.76 119.787 289.692 121.698 292.077 121.698Z" fill="#EA4C4C"/>
<path opacity="0.1" d="M307.522 105.544C311.519 105.544 314.759 102.339 314.759 98.3855C314.759 94.432 311.519 91.227 307.522 91.227C303.524 91.227 300.284 94.432 300.284 98.3855C300.284 102.339 303.524 105.544 307.522 105.544Z" fill="#EA4C4C"/>
<path opacity="0.1" d="M297.94 140.28C301.938 140.28 305.178 137.075 305.178 133.121C305.178 129.168 301.938 125.963 297.94 125.963C293.943 125.963 290.703 129.168 290.703 133.121C290.703 137.075 293.943 140.28 297.94 140.28Z" fill="#EA4C4C"/>
<path opacity="0.1" d="M10.2486 106.766C15.9087 106.766 20.4971 102.228 20.4971 96.6294C20.4971 91.0311 15.9087 86.4928 10.2486 86.4928C4.58843 86.4928 0 91.0311 0 96.6294C0 102.228 4.58843 106.766 10.2486 106.766Z" fill="#EA4C4C"/>
<path d="M261.699 207.031C261.055 206.551 260.349 206.159 259.601 205.865C259.544 205.836 259.481 205.819 259.417 205.817C257.868 204.717 256.42 203.484 255.091 202.132C255.374 201.908 255.634 201.69 255.911 201.474C254.215 200.675 253.274 198.843 252.358 197.19C249.936 192.797 246.744 188.864 242.932 185.575C242.838 185.219 242.293 185.295 242.002 185.066C241.907 184.975 241.838 184.862 241.801 184.737C241.765 184.611 241.763 184.479 241.795 184.353C241.84 184.095 241.959 183.858 242.024 183.606C242.18 183.016 242.044 182.395 241.976 181.788C241.908 181.182 241.937 180.505 242.344 180.052C242.474 179.904 242.641 179.789 242.768 179.638C242.901 179.46 242.996 179.256 243.044 179.04C243.093 178.824 243.095 178.6 243.05 178.382C243.02 177.947 242.924 177.518 242.768 177.11C244.153 173.382 245.537 169.647 246.921 165.905C247.891 163.294 248.869 160.626 248.968 157.841C249.047 155.604 248.465 153.28 247.096 151.571C247.345 151.513 247.594 151.451 247.84 151.381C246.223 149.262 246.047 146.454 246.005 143.784C245.982 142.453 245.936 141.121 245.866 139.788C246.336 139.992 246.811 140.174 247.297 140.33L247.749 140.467C248.484 140.68 249.233 140.839 249.991 140.943C250.325 140.99 250.664 141.026 251.001 141.049C250.514 139.845 250.029 138.638 249.545 137.43C249.293 136.896 249.139 136.321 249.092 135.733V135.621C249.092 135.554 249.092 135.487 249.106 135.42C249.126 135.26 249.163 135.102 249.217 134.95C249.242 134.875 249.271 134.801 249.304 134.729C249.405 134.509 249.526 134.298 249.666 134.1C249.768 133.946 249.881 133.798 249.994 133.647C250.415 133.161 250.758 132.613 251.009 132.022C251.108 131.724 251.161 131.411 251.164 131.097C251.17 130.778 251.142 130.459 251.08 130.146C251.04 129.939 250.989 129.729 250.933 129.528C250.896 129.402 250.856 129.276 250.817 129.153L250.783 129.053C250.752 128.958 250.721 128.865 250.687 128.773L250.653 128.678C250.616 128.577 250.579 128.479 250.54 128.379L250.517 128.32C249.977 126.947 249.259 125.638 248.821 124.226C248.706 123.85 248.611 123.469 248.538 123.083C248.518 122.985 248.504 122.884 248.487 122.786C248.47 122.688 248.462 122.618 248.45 122.534C248.439 122.451 248.425 122.339 248.414 122.241L248.388 121.961C248.388 121.872 248.374 121.782 248.368 121.682C248.368 121.511 248.351 121.34 248.349 121.17C248.349 121.108 248.349 121.05 248.349 120.988C248.349 120.859 248.349 120.728 248.349 120.599C248.349 120.529 248.349 120.46 248.349 120.392C248.349 120.264 248.368 120.135 248.38 120.009C248.38 119.948 248.38 119.886 248.4 119.828C248.418 119.641 248.444 119.455 248.476 119.268C248.504 119.103 248.535 118.936 248.569 118.768C248.672 118.309 248.725 117.84 248.727 117.37C248.727 117.28 248.727 117.188 248.708 117.09C248.688 116.992 248.685 116.939 248.671 116.866C248.67 116.844 248.67 116.822 248.671 116.799C248.671 116.749 248.645 116.699 248.634 116.648C248.623 116.598 248.62 116.601 248.612 116.578C248.603 116.556 248.58 116.48 248.563 116.433C248.547 116.385 248.549 116.391 248.541 116.369C248.532 116.346 248.501 116.268 248.479 116.22L248.459 116.17C248.431 116.109 248.4 116.05 248.368 115.991C248.259 115.787 248.132 115.592 247.99 115.409C247.059 114.201 245.513 113.281 244.662 111.95C244.165 111.088 243.842 110.138 243.709 109.154C243.667 108.93 243.63 108.707 243.59 108.486C243.551 108.265 243.517 108.047 243.477 107.829C243.452 107.694 243.426 107.549 243.398 107.426L243.381 107.339C243.359 107.233 243.336 107.124 243.311 107.018L243.294 106.942C243.268 106.83 243.243 106.719 243.214 106.607L243.197 106.548C243.169 106.43 243.138 106.313 243.107 106.196C243.106 106.182 243.106 106.168 243.107 106.154C243.073 106.031 243.036 105.908 243 105.785V105.759C242.96 105.631 242.92 105.505 242.878 105.379C242.836 105.25 242.79 105.119 242.742 104.99C242.691 104.859 242.643 104.728 242.59 104.599C242.234 103.698 241.753 102.851 241.159 102.082C239.864 100.438 237.863 99.2579 235.787 99.3362C234.674 99.3782 233.605 99.7641 232.556 100.147L229.833 101.14L230.594 100.793C229.802 100.863 228.994 100.936 228.278 101.282C227.563 101.629 226.958 102.309 226.936 103.103C226.921 103.564 227.105 104.023 227.046 104.481C226.947 105.239 226.243 105.754 225.878 106.425C225.664 106.829 225.567 107.284 225.595 107.739V107.762C225.595 107.815 225.595 107.865 225.595 107.918C225.594 107.933 225.594 107.948 225.595 107.963V108.052C224.465 107.566 223.334 107.06 222.203 106.517C220.334 105.608 218.443 104.54 217.278 102.818C216.905 102.258 216.616 101.654 216.246 101.101C215.821 100.505 215.348 99.9438 214.832 99.4229L211.363 95.7094C211.098 96.2044 211.44 96.7888 211.708 97.2809C211.994 97.7971 212.209 98.348 212.35 98.9196C212.418 99.1058 212.412 99.3109 212.333 99.4928C212.207 99.6428 212.043 99.7576 211.858 99.8256C211.541 100.023 211.299 100.318 211.17 100.666C211.041 101.013 211.031 101.393 211.143 101.747C211.266 102.095 211.478 102.405 211.76 102.647C212.041 102.889 212.38 103.055 212.746 103.128C212.991 103.156 213.231 103.214 213.461 103.301C213.88 103.506 214.077 103.981 214.377 104.336C214.923 104.985 215.791 105.228 216.619 105.441C217.903 106.906 219.237 108.31 220.521 109.775C222.463 111.992 224.45 114.249 226.984 115.748C227.247 115.904 227.515 116.05 227.786 116.184C227.786 116.229 227.786 116.274 227.772 116.318C227.701 116.649 227.744 116.993 227.894 117.297C228.12 117.652 228.587 117.758 229.002 117.831L230.919 118.169C230.902 118.415 230.871 118.66 230.826 118.902C230.8 119.05 230.769 119.196 230.741 119.344L230.707 119.534C230.707 119.534 230.707 119.554 230.707 119.562C230.707 119.57 230.707 119.663 230.687 119.716C230.667 119.769 230.687 119.752 230.687 119.769V119.903V119.959C230.687 120.018 230.687 120.079 230.687 120.141C230.752 120.885 231.253 121.5 231.753 122.067L232.022 122.389C231.595 122.92 231.297 123.539 231.148 124.201C231.063 124.616 231.021 125.039 231.024 125.462C230.767 125.704 230.573 126.003 230.458 126.335C230.324 126.793 230.274 127.271 230.311 127.747V127.78C230.311 127.957 230.311 128.13 230.311 128.306C230.278 128.974 230.39 129.642 230.639 130.263C230.665 130.314 230.693 130.359 230.718 130.406C230.294 131.228 229.587 131.869 229.081 132.643C228.569 133.503 228.338 134.498 228.418 135.493C228.499 136.488 228.887 137.434 229.531 138.202C229.918 138.644 230.416 139.069 230.461 139.656C230.454 139.923 230.428 140.188 230.382 140.45C230.337 141.082 230.631 141.681 230.789 142.293C230.922 142.802 230.927 143.412 230.633 143.82C230.336 144.249 230.199 144.767 230.246 145.285C230.39 146.077 230.06 146.868 230.003 147.671C229.978 148.014 230.003 148.364 229.972 148.708C229.931 149.038 229.862 149.363 229.766 149.681C229.766 149.715 229.749 149.751 229.737 149.787C229.039 150.092 228.346 150.408 227.679 150.774C227.319 150.933 227.021 151.204 226.831 151.546C226.718 151.89 226.702 152.257 226.786 152.609L227.388 156.753L227.283 156.708C227.33 157.387 227.379 158.068 227.43 158.752C227.467 159.27 227.515 159.818 227.826 160.232C227.984 160.399 228.127 160.579 228.253 160.771C228.49 161.247 228.208 161.8 227.999 162.287C227.789 162.773 227.716 163.464 228.177 163.727C228.417 163.892 228.676 164.029 228.948 164.135C228.383 166.467 228.903 168.911 229.429 171.252C229.831 173.041 230.233 174.829 230.636 176.615C230.794 177.374 230.883 178.145 230.902 178.919C230.902 179.031 230.902 179.143 230.902 179.255C230.959 180.32 231.149 181.374 231.467 182.392C232.095 184.484 231.493 186.995 231.691 189.274C231.822 190.37 232.044 191.454 232.352 192.515C233.718 197.873 234.936 203.124 235.406 208.633C235.908 209.265 236.589 209.735 237.362 209.984C237.306 210.66 237.382 211.435 237.362 211.829C237.361 212.156 237.31 212.48 237.21 212.791C236.969 213.412 236.361 213.817 235.731 214.035C235.533 214.103 235.332 214.156 235.129 214.203L235.355 214.013C234.062 213.735 232.711 213.97 231.592 214.667C231.416 214.756 231.26 214.878 231.132 215.027C231.005 215.176 230.908 215.348 230.848 215.534C230.802 215.889 230.895 216.249 231.108 216.538C231.731 217.439 232.658 218.091 233.724 218.375C234.776 218.649 235.858 218.799 236.947 218.82L238.943 218.935C238.875 219.047 238.851 219.181 238.874 219.31C238.898 219.439 238.969 219.555 239.073 219.636C239.287 219.791 239.541 219.882 239.805 219.899C240.62 220.019 241.448 220.031 242.267 219.936C242.473 219.93 242.671 219.859 242.833 219.734C242.87 219.701 242.901 219.659 242.921 219.613C242.942 219.567 242.952 219.518 242.952 219.467C242.952 219.417 242.942 219.367 242.921 219.321C242.901 219.275 242.87 219.234 242.833 219.2C242.953 219.196 243.068 219.157 243.165 219.087C243.262 219.017 243.335 218.92 243.376 218.809C243.454 218.581 243.479 218.34 243.449 218.101C243.395 217.181 243.313 215.845 242.83 215.025C242.746 214.876 242.616 214.758 242.458 214.69C242.3 214.621 242.124 214.605 241.956 214.645C241.644 213.008 241.455 211.35 241.391 209.684C241.889 209.5 242.374 209.283 242.844 209.036C241.456 206.818 241.43 204.002 241.855 201.424C242.023 200.61 242.146 199.788 242.225 198.961C242.318 197.311 242.067 195.443 241.142 194.078C242.827 195.138 244.319 196.473 245.553 198.027C247.506 200.543 248.696 203.591 251.091 205.688C251.406 205.385 251.724 205.083 252.047 204.782C252.552 205.629 253.029 206.493 253.48 207.375C253.833 208.023 254.112 208.709 254.311 209.419C254.532 210.505 254.558 211.621 254.387 212.716C254.322 213.297 254.241 213.876 254.147 214.452C254.109 214.699 254.051 214.942 253.975 215.179C253.974 215.103 253.955 215.029 253.921 214.961C253.771 214.701 253.356 214.818 253.129 214.997C252.727 215.296 252.394 215.678 252.154 216.116C252.022 216.33 251.961 216.579 251.979 216.829C252.015 216.979 252.085 217.12 252.183 217.241C252.28 217.362 252.404 217.46 252.544 217.528C253.593 218.135 254.911 217.696 256.036 217.248C256.347 217.138 256.643 216.99 256.918 216.809C257.483 216.407 257.791 215.744 258.354 215.353C258.654 215.19 258.944 215.008 259.222 214.81C259.745 214.337 259.787 213.54 260.169 212.942C260.802 211.91 262.219 211.645 262.773 210.551C263.415 209.343 262.665 207.819 261.699 207.031Z" fill="url(#paint0_linear)"/>
<path d="M237.325 211.952C237.324 212.275 237.271 212.596 237.17 212.903C236.932 213.515 236.322 213.915 235.694 214.131C235.066 214.346 234.399 214.41 233.76 214.597C233.48 214.661 233.22 214.793 233.005 214.983C232.44 215.543 232.779 216.549 233.441 216.966C234.102 217.383 234.945 217.369 235.731 217.316C237.399 217.219 239.055 216.987 240.684 216.619C241.272 216.482 241.959 216.214 242.052 215.624C242.07 215.436 242.055 215.247 242.007 215.064C241.606 213.063 241.393 211.029 241.371 208.988C241.371 208.854 238.092 208.767 237.786 208.963C237.102 209.408 237.362 211.264 237.325 211.952Z" fill="#A1616A"/>
<path d="M251.948 204.83C252.49 205.719 253 206.626 253.477 207.551C253.83 208.19 254.109 208.866 254.308 209.567C254.527 210.638 254.553 211.739 254.385 212.819C254.319 213.391 254.238 213.963 254.142 214.533C254.048 215.092 253.898 215.727 253.415 216.049C253.63 216.175 253.872 216.252 254.121 216.274C254.371 216.296 254.622 216.262 254.857 216.175C255.323 215.996 255.753 215.736 256.126 215.406C258.549 213.429 260.367 210.557 260.457 207.45C260.483 207.207 260.437 206.963 260.325 206.745C260.21 206.593 260.066 206.466 259.9 206.371C258.093 205.153 256.413 203.758 254.888 202.207C254.798 202.088 254.667 202.005 254.52 201.975C254.405 201.976 254.291 202.008 254.192 202.067C253.262 202.529 251.707 203.186 251.32 204.234C251.585 204.366 251.803 204.574 251.948 204.83Z" fill="#A1616A"/>
<path d="M240.639 215.199C238.603 216.038 236.398 216.34 234.196 216.628C233.913 216.661 233.61 216.684 233.424 216.488C233.35 216.397 233.305 216.285 233.296 216.168C233.287 216.052 233.314 215.935 233.373 215.833C233.493 215.632 233.654 215.457 233.845 215.319L235.307 214.108C234.032 213.841 232.703 214.067 231.592 214.74C231.243 214.912 230.976 215.214 230.851 215.579C230.804 215.931 230.897 216.287 231.111 216.572C231.737 217.463 232.663 218.106 233.724 218.384C234.776 218.654 235.857 218.801 236.944 218.823L238.923 218.935C238.855 219.046 238.83 219.179 238.855 219.307C238.879 219.435 238.951 219.549 239.056 219.628C239.27 219.783 239.525 219.875 239.791 219.894C240.606 220.011 241.432 220.022 242.25 219.927C242.456 219.924 242.654 219.854 242.816 219.729C242.853 219.696 242.883 219.655 242.904 219.61C242.924 219.565 242.935 219.516 242.935 219.466C242.935 219.416 242.924 219.367 242.904 219.322C242.883 219.277 242.853 219.236 242.816 219.203C242.935 219.2 243.051 219.161 243.148 219.091C243.244 219.022 243.318 218.925 243.359 218.814C243.434 218.59 243.459 218.353 243.432 218.118C243.378 217.212 243.296 215.881 242.813 215.09C242.329 214.298 241.323 214.919 240.639 215.199Z" fill="#0E2431"/>
<path d="M261.648 207.204C261.003 206.731 260.297 206.345 259.55 206.055C259.52 206.032 259.485 206.016 259.449 206.009C259.412 206.001 259.374 206.002 259.337 206.011C259.301 206.021 259.267 206.038 259.238 206.062C259.209 206.086 259.186 206.116 259.171 206.15C257.836 207.942 256.793 209.93 256.081 212.042C255.677 213.244 255.357 214.525 254.537 215.498C254.43 215.627 254.255 215.758 254.108 215.682C253.896 215.576 254.026 215.238 253.907 215.034C253.76 214.776 253.358 214.894 253.118 215.07C252.714 215.367 252.382 215.749 252.145 216.189C252.01 216.397 251.948 216.644 251.97 216.891C252.005 217.038 252.073 217.176 252.168 217.295C252.264 217.414 252.384 217.511 252.522 217.578C253.57 218.18 254.888 217.746 256.01 217.299C256.32 217.191 256.616 217.045 256.889 216.865C257.455 216.471 257.763 215.814 258.326 215.431C258.626 215.27 258.916 215.09 259.194 214.894C259.714 214.427 259.759 213.641 260.138 213.048C260.771 212.033 262.188 211.77 262.742 210.691C263.361 209.486 262.615 207.981 261.648 207.204Z" fill="#0E2431"/>
<path d="M245.869 151.348C248.091 152.997 249.024 155.931 248.925 158.677C248.826 161.423 247.851 164.057 246.884 166.632C245.499 170.318 244.115 174.002 242.734 177.686C242.888 178.09 242.983 178.514 243.017 178.944C243.06 179.159 243.058 179.379 243.009 179.592C242.96 179.805 242.866 180.006 242.734 180.18C242.604 180.329 242.451 180.443 242.31 180.589C241.903 181.036 241.877 181.707 241.942 182.303C242.007 182.898 242.146 183.514 241.99 184.095C241.925 184.344 241.806 184.579 241.761 184.831C241.73 184.956 241.732 185.087 241.768 185.211C241.805 185.334 241.873 185.446 241.968 185.535C242.25 185.759 242.816 185.686 242.898 186.039C246.699 189.277 249.887 193.159 252.312 197.504C253.228 199.134 254.153 200.94 255.863 201.729C254.197 203.035 252.599 204.424 251.077 205.893C248.688 203.823 247.498 200.812 245.547 198.343C244.312 196.807 242.823 195.49 241.142 194.447C242.067 195.792 242.318 197.638 242.225 199.262C242.147 200.079 242.023 200.89 241.855 201.692C241.416 204.237 241.456 207.005 242.844 209.203C241.363 209.964 239.661 210.529 238.007 210.302C236.969 210.156 236.027 209.624 235.372 208.815C234.902 203.379 233.675 198.189 232.321 192.912C232.011 191.859 231.79 190.783 231.663 189.694C231.465 187.456 232.067 184.968 231.436 182.904C231.119 181.9 230.929 180.861 230.871 179.811C230.871 179.699 230.871 179.59 230.871 179.479C230.852 178.715 230.763 177.955 230.605 177.208L229.401 171.917C228.875 169.605 228.349 167.194 228.917 164.893C228.646 164.789 228.388 164.655 228.148 164.493C227.688 164.233 227.761 163.554 227.97 163.073C228.179 162.592 228.459 162.046 228.225 161.577C228.1 161.386 227.957 161.207 227.798 161.042C227.487 160.634 227.439 160.095 227.402 159.586L227.255 157.567C228.108 157.901 228.819 158.517 229.268 159.309C228.154 157.603 228.702 155.17 229.525 153.308C229.678 152.737 230.013 152.231 230.481 151.865C230.949 151.498 231.524 151.291 232.121 151.275C236.653 150.509 242.188 148.61 245.869 151.348Z" fill="#0E2431"/>
<path opacity="0.1" d="M243.802 162.829C243.802 162.829 241.575 164.3 241.575 165.402C241.575 166.504 241.009 176.419 241.009 176.419V183.41C241.009 183.41 241.38 187.085 241.009 188.002C240.639 188.919 241.009 193.144 241.009 193.695C241.009 194.246 241.575 188.002 241.575 188.002V181.38L242.14 166.319L243.802 162.829Z" fill="black"/>
<path d="M231.377 111.897L230.079 111.397C227.427 110.345 224.773 109.291 222.206 108.058C220.34 107.16 218.448 106.101 217.286 104.409C216.913 103.849 216.625 103.262 216.254 102.711C215.829 102.122 215.356 101.568 214.841 101.053L211.375 97.39C211.109 97.8794 211.448 98.4554 211.72 98.9392C212.004 99.449 212.219 99.9933 212.361 100.558C212.428 100.74 212.421 100.941 212.342 101.117C212.217 101.267 212.054 101.381 211.869 101.447C211.554 101.639 211.312 101.929 211.182 102.272C211.053 102.615 211.043 102.991 211.154 103.341C211.278 103.686 211.491 103.993 211.772 104.232C212.052 104.472 212.391 104.635 212.754 104.705C212.999 104.733 213.239 104.79 213.47 104.876C213.888 105.08 214.086 105.547 214.386 105.896C214.931 106.537 215.799 106.78 216.625 106.987C217.908 108.433 219.24 109.817 220.523 111.263C222.463 113.449 224.448 115.675 226.981 117.157C227.88 117.701 228.865 118.092 229.896 118.315C230.236 116.144 230.731 113.999 231.377 111.897Z" fill="#A1616A"/>
<path opacity="0.15" d="M231.377 111.897L230.079 111.397C227.427 110.345 224.773 109.291 222.206 108.058C220.34 107.16 218.448 106.101 217.286 104.409C216.913 103.849 216.625 103.262 216.254 102.711C215.829 102.122 215.356 101.568 214.841 101.053L211.375 97.39C211.109 97.8794 211.448 98.4554 211.72 98.9392C212.004 99.449 212.219 99.9933 212.361 100.558C212.428 100.74 212.421 100.941 212.342 101.117C212.217 101.267 212.054 101.381 211.869 101.447C211.554 101.639 211.312 101.929 211.182 102.272C211.053 102.615 211.043 102.991 211.154 103.341C211.278 103.686 211.491 103.993 211.772 104.232C212.052 104.472 212.391 104.635 212.754 104.705C212.999 104.733 213.239 104.79 213.47 104.876C213.888 105.08 214.086 105.547 214.386 105.896C214.931 106.537 215.799 106.78 216.625 106.987C217.908 108.433 219.24 109.817 220.523 111.263C222.463 113.449 224.448 115.675 226.981 117.157C227.88 117.701 228.865 118.092 229.896 118.315C230.236 116.144 230.731 113.999 231.377 111.897Z" fill="black"/>
<path d="M229.002 119.198C228.587 119.126 228.12 119.025 227.894 118.673C227.744 118.374 227.701 118.034 227.772 117.708C227.997 115.6 228.472 113.526 229.186 111.528C229.816 112.683 231.058 113.357 232.234 113.964C233.284 114.541 234.378 115.035 235.507 115.44C235.225 115.351 234.532 119.651 234.142 119.914C233.65 120.255 232.463 119.794 231.917 119.702L229.002 119.198Z" fill="#EA4C4C"/>
<path d="M232.013 117.929C235.295 117.929 237.956 115.297 237.956 112.051C237.956 108.805 235.295 106.173 232.013 106.173C228.731 106.173 226.07 108.805 226.07 112.051C226.07 115.297 228.731 117.929 232.013 117.929Z" fill="#A1616A"/>
<path d="M230.806 116.917C230.806 116.917 234.705 120.222 233.034 122.425C231.363 124.629 230.433 126.1 232.661 126.284C234.888 126.469 242.315 122.61 242.315 122.61C242.315 122.61 235.445 117.101 236.559 113.796C237.673 110.491 230.806 116.917 230.806 116.917Z" fill="#FBBEBE"/>
<path d="M234.546 122.09C233.715 122.287 232.956 122.709 232.354 123.309C231.751 123.908 231.329 124.662 231.134 125.485C230.696 127.464 231.626 129.679 230.749 131.502C230.337 132.369 229.57 133.018 229.053 133.832C228.544 134.679 228.313 135.661 228.393 136.644C228.473 137.626 228.86 138.56 229.5 139.315C229.887 139.751 230.385 140.174 230.43 140.75C230.423 141.012 230.397 141.274 230.351 141.533C230.305 142.156 230.6 142.749 230.758 143.353C230.891 143.854 230.896 144.455 230.602 144.857C230.306 145.279 230.17 145.791 230.218 146.303C230.359 147.086 230.028 147.866 229.972 148.658C229.946 148.999 229.972 149.34 229.941 149.681C229.9 150.006 229.832 150.327 229.737 150.64L229.24 152.455C231.937 153.596 234.804 154.007 237.721 153.954C240.334 153.904 242.909 153.369 245.465 152.835C246.242 152.673 247.02 152.511 247.786 152.301C246.169 150.21 245.996 147.438 245.951 144.807C245.881 140.42 245.549 136.041 244.959 131.692C245.742 130.23 246.09 128.6 246.412 126.975C246.557 126.321 246.617 125.651 246.593 124.981C246.514 123.583 245.864 122.255 245.227 120.988C244.645 119.83 244.015 118.611 242.717 118.111C242.404 117.98 242.062 117.931 241.724 117.968C241.386 118.004 241.063 118.126 240.786 118.32C239.805 119.053 240.096 120.317 239.844 121.396C239.514 122.795 238.21 123.798 236.822 124.193C235.786 124.461 234.713 124.56 233.644 124.486C233.54 124.48 233.439 124.446 233.353 124.386C233.267 124.327 233.199 124.245 233.158 124.15C233.116 124.055 233.102 123.95 233.117 123.848C233.132 123.745 233.176 123.649 233.243 123.569C233.698 123.071 234.156 122.565 234.546 122.09Z" fill="#EA4C4C"/>
<path d="M239.149 144.81C236.949 146.588 234.724 148.384 232.186 149.642C230.696 150.38 229.112 150.925 227.662 151.72C227.303 151.875 227.006 152.142 226.814 152.48C226.698 152.818 226.683 153.182 226.769 153.529L227.413 157.925C227.591 159.116 228.748 159.882 229.675 160.643C229.624 160.243 229.542 159.932 229.734 159.577C229.801 159.466 229.874 159.359 229.952 159.256C230.348 158.663 230.362 157.894 230.266 157.189C230.17 156.485 229.983 155.791 230.02 155.07C230.012 154.95 230.035 154.831 230.088 154.723C230.14 154.615 230.22 154.523 230.32 154.454C233.478 152.953 236.879 151.801 240.071 150.375C240.915 150.037 241.711 149.59 242.437 149.046C243.167 148.493 243.658 147.687 243.811 146.79C243.826 146.732 243.828 146.671 243.818 146.612C243.809 146.553 243.787 146.496 243.754 146.446C243.69 146.376 243.607 146.328 243.514 146.306C242.084 145.791 240.574 145.319 239.149 144.81Z" fill="#A1616A"/>
<path opacity="0.1" d="M233.039 126.365C231.948 126.547 230.8 127.106 230.43 128.141C230.297 128.595 230.247 129.068 230.283 129.539C230.249 130.201 230.362 130.863 230.614 131.477C230.8 131.816 231.021 132.135 231.275 132.428C233.888 135.739 235.199 139.897 237.744 143.261C237.97 143.557 238.383 143.943 238.256 144.293C238.209 144.383 238.169 144.477 238.134 144.572C238.122 144.663 238.133 144.754 238.166 144.84C238.198 144.925 238.252 145.001 238.321 145.062C238.456 145.185 238.562 145.337 238.629 145.506C238.677 145.682 238.558 145.912 238.374 145.898C238.68 146.832 239.615 147.377 240.503 147.819C241.979 148.554 243.613 149.133 245.256 148.974C245.564 147.752 245.994 146.37 245.821 145.126C245.641 144.176 245.322 143.256 244.874 142.397L243.769 140.009C242.827 137.97 241.877 135.918 240.565 134.092C240.093 133.514 239.695 132.879 239.381 132.204C239.044 131.34 238.12 130.733 237.56 129.992C236.729 128.874 235.864 127.755 234.75 126.947C234.303 126.606 233.585 126.276 233.039 126.365Z" fill="black"/>
<path d="M233.039 125.815C231.948 125.996 230.8 126.556 230.43 127.587C230.297 128.041 230.247 128.515 230.283 128.986C230.249 129.648 230.362 130.309 230.614 130.923C230.8 131.263 231.021 131.581 231.275 131.874C233.888 135.185 235.199 139.343 237.744 142.707C237.97 143.004 238.383 143.389 238.256 143.739C238.209 143.83 238.169 143.923 238.134 144.019C238.122 144.109 238.133 144.201 238.166 144.286C238.198 144.371 238.251 144.448 238.321 144.508C238.456 144.631 238.562 144.783 238.629 144.953C238.677 145.129 238.558 145.358 238.374 145.344C238.68 146.278 239.615 146.823 240.503 147.265C241.979 148.001 243.613 148.579 245.256 148.42C245.564 147.198 245.994 145.817 245.821 144.572C245.641 143.622 245.322 142.703 244.874 141.843L243.769 139.455C242.827 137.416 241.877 135.364 240.565 133.538C240.092 132.959 239.694 132.324 239.381 131.648C239.044 130.786 238.12 130.18 237.56 129.439C236.729 128.32 235.864 127.202 234.75 126.393C234.303 126.055 233.585 125.725 233.039 125.815Z" fill="#EA4C4C"/>
<path d="M230.549 102.395C229.76 102.463 228.948 102.535 228.236 102.876C227.523 103.218 226.916 103.889 226.893 104.672C226.893 105.127 227.063 105.58 227.003 106.031C226.904 106.78 226.2 107.286 225.838 107.949C225.205 109.101 225.697 110.566 226.517 111.584C227.337 112.602 228.448 113.385 229.29 114.397C229.955 115.207 230.436 116.148 230.7 117.157C230.965 118.167 231.006 119.22 230.823 120.247C230.718 120.646 230.668 121.057 230.673 121.469C230.738 122.202 231.238 122.809 231.736 123.368C234.156 126.167 236.396 129.115 238.442 132.193C239.056 133.087 239.608 134.021 240.093 134.989C240.574 135.99 240.941 137.059 241.609 137.945C242.225 138.706 242.979 139.346 243.834 139.832C245.989 141.147 248.433 141.927 250.958 142.106L249.502 138.535C249.245 137.9 248.979 137.232 249.064 136.552C249.225 135.266 250.537 134.422 250.964 133.197C251.246 132.408 251.119 131.539 250.887 130.736C250.373 128.927 249.344 127.299 248.79 125.501C248.304 123.925 248.195 122.258 248.473 120.633C248.595 119.917 248.792 119.198 248.702 118.48C248.433 116.293 245.841 115.247 244.642 113.393C243.867 112.202 243.718 110.734 243.458 109.341C243.082 107.309 242.411 105.278 241.117 103.657C239.822 102.035 237.826 100.86 235.745 100.947C234.631 100.989 233.565 101.372 232.516 101.747L229.791 102.728" fill="#0E2431"/>
<g opacity="0.1">
<path opacity="0.1" d="M242.714 106.962C242.949 108.217 243.096 109.534 243.689 110.656C243.607 110.22 243.539 109.781 243.458 109.35C243.266 108.254 242.96 107.18 242.547 106.145C242.618 106.417 242.666 106.688 242.714 106.962Z" fill="black"/>
<path opacity="0.1" d="M247.729 118.253C247.453 119.879 247.562 121.547 248.046 123.125C248.179 123.552 248.329 123.963 248.51 124.383C248.274 123.148 248.262 121.881 248.473 120.641C248.595 119.926 248.793 119.207 248.702 118.488C248.619 117.872 248.364 117.292 247.967 116.81C247.925 117.297 247.811 117.775 247.729 118.253Z" fill="black"/>
<path opacity="0.1" d="M250.887 130.744C250.731 130.219 250.542 129.704 250.322 129.201C250.417 129.74 250.38 130.295 250.214 130.817C249.788 132.039 248.473 132.886 248.315 134.173C248.23 134.852 248.493 135.521 248.753 136.155C248.849 136.393 248.945 136.633 249.036 136.871C249.029 136.768 249.029 136.664 249.036 136.561C249.197 135.274 250.509 134.43 250.935 133.205C251.241 132.417 251.119 131.547 250.887 130.744Z" fill="black"/>
<path opacity="0.1" d="M243.093 137.453C242.239 136.965 241.484 136.324 240.868 135.563C240.198 134.676 239.83 133.605 239.35 132.607C238.865 131.638 238.313 130.704 237.699 129.811C235.654 126.732 233.415 123.783 230.995 120.983C230.908 120.885 230.823 120.784 230.738 120.683C230.68 120.942 230.658 121.207 230.673 121.472C230.738 122.205 231.238 122.811 231.736 123.371C234.157 126.17 236.396 129.118 238.442 132.196C239.056 133.09 239.608 134.024 240.093 134.992C240.574 135.993 240.941 137.061 241.609 137.948C242.224 138.709 242.979 139.349 243.834 139.835C245.989 141.15 248.433 141.93 250.958 142.109L249.969 139.704C247.531 139.493 245.176 138.722 243.093 137.453Z" fill="black"/>
<path opacity="0.1" d="M228.547 112.02C227.699 111.008 226.593 110.239 225.773 109.21C225.7 109.115 225.629 109.017 225.559 108.914C225.542 109.892 225.882 110.844 226.517 111.595C227.337 112.627 228.448 113.396 229.29 114.408C229.619 114.802 229.904 115.229 230.139 115.684C229.964 114.34 229.412 113.071 228.547 112.02Z" fill="black"/>
</g>
<path d="M118.188 83.3162L116.138 81.2776C116.037 81.1766 115.916 81.0964 115.784 81.0417C115.651 80.987 115.509 80.9588 115.365 80.9588C115.221 80.9588 115.079 80.987 114.946 81.0417C114.813 81.0964 114.693 81.1766 114.592 81.2776L101.719 93.8918L96.2742 88.467C96.0706 88.2656 95.7945 88.1525 95.5066 88.1525C95.2187 88.1525 94.9426 88.2656 94.739 88.467L92.6667 90.4943C92.4632 90.6979 92.349 90.9727 92.349 91.2591C92.349 91.5454 92.4632 91.8202 92.6667 92.0239L100.936 100.265C101.142 100.466 101.419 100.579 101.708 100.579C101.997 100.579 102.274 100.466 102.48 100.265L118.188 84.8457C118.29 84.7456 118.371 84.6265 118.426 84.4953C118.482 84.364 118.51 84.2232 118.51 84.081C118.51 83.9387 118.482 83.7979 118.426 83.6666C118.371 83.5354 118.29 83.4163 118.188 83.3162Z" fill="#193647"/>
<path d="M175.014 83.3162L172.964 81.2776C172.863 81.1766 172.743 81.0964 172.61 81.0417C172.477 80.987 172.335 80.9588 172.191 80.9588C172.047 80.9588 171.905 80.987 171.772 81.0417C171.64 81.0964 171.519 81.1766 171.418 81.2776L158.546 93.8918L153.101 88.467C152.897 88.2656 152.621 88.1525 152.333 88.1525C152.045 88.1525 151.769 88.2656 151.566 88.467L149.493 90.4943C149.29 90.6979 149.175 90.9727 149.175 91.2591C149.175 91.5454 149.29 91.8202 149.493 92.0239L157.763 100.265C157.968 100.466 158.245 100.579 158.535 100.579C158.824 100.579 159.101 100.466 159.306 100.265L175.014 84.8457C175.116 84.7456 175.197 84.6265 175.253 84.4953C175.308 84.364 175.337 84.2232 175.337 84.081C175.337 83.9387 175.308 83.7979 175.253 83.6666C175.197 83.5354 175.116 83.4163 175.014 83.3162Z" fill="#193647"/>
</g>
<defs>
<linearGradient id="paint0_linear" x1="237.054" y1="219.997" x2="237.054" y2="95.7038" gradientUnits="userSpaceOnUse">
<stop stop-color="#808080" stop-opacity="0.25"/>
<stop offset="0.54" stop-color="#808080" stop-opacity="0.12"/>
<stop offset="1" stop-color="#808080" stop-opacity="0.1"/>
</linearGradient>
<clipPath id="clip0">
<rect width="319" height="220" fill="white"/>
</clipPath>
</defs>
</svg>
