<svg width="149" height="104" viewBox="0 0 149 104" fill="none" xmlns="http://www.w3.org/2000/svg">
<path opacity="0.1" d="M146.115 28.099C144.641 24.9782 142.648 22.0832 140.206 19.5157L58.2083 18.779L125.719 10.1365C121.358 8.55395 116.715 7.71462 112.021 7.66028C105.563 2.95506 97.6109 0.275753 89.3478 0.0209361C81.0847 -0.233881 72.9521 1.94941 66.1598 6.24601C60.731 3.70137 54.7124 2.37879 48.6078 2.38892C30.3885 2.38892 15.2076 13.8908 11.8025 29.1417L146.115 28.099Z" fill="#EA4C4C"/>
<path opacity="0.1" d="M148.999 40.8903C149.003 36.7541 148.135 32.6557 146.444 28.8176L4.33194 42.4138C2.87166 44.8297 1.75444 47.405 1.00717 50.0779L45.0178 56.0564L0 60.4162C1.35417 77.6818 17.593 91.3153 37.4302 91.3153C47.4158 91.3153 56.4902 87.8606 63.2131 82.2267C69.9572 87.9674 79.119 91.4979 89.2118 91.4979C104.188 91.4979 117.113 83.7258 123.132 72.4889C135.209 68.9956 144.589 60.2246 147.8 49.2512L92.1459 41.384H148.993C148.996 41.2194 148.999 41.0549 148.999 40.8903Z" fill="#EA4C4C"/>
<path opacity="0.1" d="M3.96519 95.4437C5.9767 95.4437 7.60735 95.2393 7.60735 94.9872C7.60735 94.7352 5.9767 94.5308 3.96519 94.5308C1.95368 94.5308 0.323029 94.7352 0.323029 94.9872C0.323029 95.2393 1.95368 95.4437 3.96519 95.4437Z" fill="#EA4C4C"/>
<path opacity="0.1" d="M17.9174 96.7332C19.9289 96.7332 21.5596 96.5289 21.5596 96.2768C21.5596 96.0247 19.9289 95.8204 17.9174 95.8204C15.9059 95.8204 14.2752 96.0247 14.2752 96.2768C14.2752 96.5289 15.9059 96.7332 17.9174 96.7332Z" fill="#EA4C4C"/>
<path opacity="0.1" d="M34.3523 94.9873C36.3638 94.9873 37.9944 94.7829 37.9944 94.5309C37.9944 94.2788 36.3638 94.0744 34.3523 94.0744C32.3408 94.0744 30.7101 94.2788 30.7101 94.5309C30.7101 94.7829 32.3408 94.9873 34.3523 94.9873Z" fill="#EA4C4C"/>
<path opacity="0.1" d="M12.3329 100.273C13.7632 100.273 14.9227 100.128 14.9227 99.9488C14.9227 99.7698 13.7632 99.6248 12.3329 99.6248C10.9025 99.6248 9.743 99.7698 9.743 99.9488C9.743 100.128 10.9025 100.273 12.3329 100.273Z" fill="#EA4C4C"/>
<path opacity="0.1" d="M26.8155 99.9488C28.2458 99.9488 29.4053 99.8037 29.4053 99.6248C29.4053 99.4458 28.2458 99.3008 26.8155 99.3008C25.3851 99.3008 24.2256 99.4458 24.2256 99.6248C24.2256 99.8037 25.3851 99.9488 26.8155 99.9488Z" fill="#EA4C4C"/>
<path d="M17.9964 96.174C17.9964 96.174 12.8872 80.9102 18.7948 74.7967C23.2156 70.2222 28.2317 70.7699 30.4788 71.3356C31.0602 71.4768 31.601 71.7315 32.0638 72.082C32.5266 72.4325 32.9002 72.8705 33.1589 73.3657C33.9446 74.9085 33.8021 77.4169 28.2571 80.3432C18.9725 85.243 18.3956 91.9633 18.3956 91.9633L17.9964 96.174Z" fill="#EA4C4C"/>
<path d="M29.679 73.5007C29.679 73.5007 14.6194 77.7924 17.9964 96.174" stroke="#193647" stroke-miterlimit="10"/>
<path d="M20.8839 75.0397C20.8839 75.0397 22.9575 76.3125 22.2945 78.2269" stroke="#193647" stroke-miterlimit="10"/>
<path d="M28.1682 76.1711C28.1682 76.1711 26.8987 74.996 25.3583 75.644" stroke="#193647" stroke-miterlimit="10"/>
<path d="M22.2155 82.0853C22.2155 82.0853 19.9896 81.0567 19.4141 82.3425" stroke="#193647" stroke-miterlimit="10"/>
<path d="M16.7071 84.2298C16.7071 84.2298 18.3787 84.109 18.4097 84.838" stroke="#193647" stroke-miterlimit="10"/>
<path d="M17.7933 96.2961C17.7933 96.2961 23.777 85.2019 25.4204 85.4449C26.2004 85.5606 26.5601 86.26 26.7238 86.9633C26.9265 87.8747 26.8127 88.8212 26.3979 89.6709C25.5516 91.4388 23.2636 94.8137 17.7933 96.2961Z" fill="#EA4C4C"/>
<path d="M25.371 87.5508C25.371 87.5508 19.091 95.8512 17.8779 96.2151" stroke="#193647" stroke-miterlimit="10"/>
<path d="M25.9494 88.8455H24.4837" stroke="#193647" stroke-miterlimit="10"/>
<path d="M24.1932 91.8823L21.8967 91.9723" stroke="#193647" stroke-miterlimit="10"/>
<path d="M22.7953 89.4536L23.0449 90.5439" stroke="#193647" stroke-miterlimit="10"/>
<path d="M20.3521 92.7733L20.3972 93.7646" stroke="#193647" stroke-miterlimit="10"/>
<path d="M17.9668 96.2961C17.9668 96.2961 11.983 85.2019 10.3397 85.4449C9.55962 85.5606 9.19991 86.26 9.03628 86.9633C8.83509 87.8724 8.94947 88.8161 9.36354 89.6632C10.2113 91.4388 12.4922 94.8137 17.9668 96.2961Z" fill="#EA4C4C"/>
<path d="M10.3848 87.5508C10.3848 87.5508 16.6648 95.8512 17.8779 96.2151" stroke="#193647" stroke-miterlimit="10"/>
<path d="M9.80788 88.8455H11.2735" stroke="#193647" stroke-miterlimit="10"/>
<path d="M11.5627 91.8823L13.8605 91.9723" stroke="#193647" stroke-miterlimit="10"/>
<path d="M12.962 89.4536L12.7123 90.5439" stroke="#193647" stroke-miterlimit="10"/>
<path d="M15.4051 92.7733L15.36 93.7646" stroke="#193647" stroke-miterlimit="10"/>
<path d="M28.2402 98.8868C28.4033 98.7659 28.5224 98.6027 28.5815 98.4188C28.6077 98.3264 28.5983 98.2287 28.555 98.1418C28.5116 98.055 28.4368 97.9844 28.3431 97.9418C28.1245 97.8647 27.8903 98.0035 27.714 98.1424C27.5377 98.2812 27.3331 98.4419 27.1018 98.4124C27.2199 98.3133 27.3079 98.1881 27.3573 98.0489C27.4068 97.9097 27.4159 97.7612 27.3839 97.6178C27.3742 97.5583 27.3469 97.5023 27.3049 97.4558C27.1836 97.3375 26.9636 97.389 26.8183 97.4815C26.3556 97.7772 26.2272 98.3494 26.2244 98.8649C26.199 98.6759 26.1962 98.485 26.2159 98.2954C26.2159 98.1051 26.1567 97.893 25.9804 97.7914C25.8713 97.7367 25.7479 97.7101 25.6235 97.7142C25.4147 97.7142 25.1848 97.7258 25.0423 97.8647C24.866 98.037 24.9111 98.3249 25.0649 98.5152C25.2364 98.6914 25.4396 98.8397 25.6658 98.9537C25.8354 99.0479 25.98 99.1752 26.089 99.3265C26.1016 99.3478 26.112 99.3702 26.12 99.3934H27.422C27.7189 99.2595 27.9942 99.0891 28.2402 98.8868V98.8868Z" fill="#EA4C4C"/>
<path d="M5.44068 94.419C5.60397 94.2982 5.72304 94.135 5.78204 93.951C5.80806 93.8585 5.79861 93.7606 5.75525 93.6736C5.7119 93.5866 5.63724 93.5157 5.54365 93.4727C5.32501 93.3969 5.09226 93.5357 4.91452 93.6746C4.73679 93.8134 4.53507 93.9729 4.30232 93.9433C4.42075 93.8444 4.509 93.7192 4.55845 93.58C4.6079 93.4407 4.61686 93.2921 4.58444 93.1487C4.57387 93.0896 4.54611 93.0341 4.50404 92.988C4.38273 92.8697 4.16267 92.9199 4.01738 93.0137C3.55471 93.3094 3.42634 93.8816 3.42352 94.3972C3.39811 94.2077 3.39527 94.0163 3.41506 93.8263C3.41506 93.636 3.35722 93.4251 3.1809 93.3236C3.07127 93.2689 2.94748 93.2423 2.82261 93.2464C2.61525 93.2387 2.38391 93.258 2.24144 93.3969C2.06512 93.5692 2.11167 93.8572 2.26401 94.0397C2.43531 94.217 2.63912 94.3658 2.86634 94.4794C3.03635 94.5732 3.18099 94.7006 3.28951 94.8523C3.30227 94.8738 3.31312 94.8961 3.32196 94.9192H4.62394C4.9198 94.787 5.19457 94.6187 5.44068 94.419V94.419Z" fill="#EA4C4C"/>
<path d="M13.0396 98.8868C13.2027 98.7659 13.3218 98.6027 13.3809 98.4188C13.4071 98.3264 13.3978 98.2287 13.3544 98.1418C13.311 98.055 13.2362 97.9844 13.1425 97.9418C12.9239 97.8647 12.6897 98.0035 12.5134 98.1424C12.3371 98.2812 12.1326 98.4419 11.9012 98.4124C12.0193 98.3133 12.1073 98.1881 12.1567 98.0489C12.2062 97.9097 12.2153 97.7612 12.1833 97.6178C12.1736 97.5583 12.1463 97.5023 12.1043 97.4558C11.983 97.3375 11.763 97.389 11.6177 97.4815C11.155 97.7772 11.0266 98.3494 11.0238 98.8649C10.9984 98.6759 10.9956 98.485 11.0154 98.2954C11.0154 98.1051 10.9575 97.893 10.7812 97.7914C10.6715 97.7369 10.5478 97.7102 10.4229 97.7142C10.2155 97.7142 9.98421 97.7258 9.84174 97.8647C9.66542 98.037 9.71055 98.3249 9.86431 98.5152C10.0358 98.6914 10.239 98.8397 10.4652 98.9537C10.6348 99.0479 10.7794 99.1752 10.8884 99.3265C10.901 99.3478 10.9114 99.3702 10.9194 99.3934H12.2214C12.5183 99.2595 12.7936 99.0891 13.0396 98.8868V98.8868Z" fill="#EA4C4C"/>
<path d="M34.5893 89.8548C34.5893 89.8548 35.0773 90.4372 34.3636 91.3153C33.6498 92.1935 33.063 92.9353 33.3 93.483C33.3 93.483 34.3763 91.8515 35.2522 91.8283C36.1282 91.8052 35.5527 90.8358 34.5893 89.8548Z" fill="#EA4C4C"/>
<path opacity="0.1" d="M34.5893 89.8548C34.6318 89.9111 34.6655 89.9725 34.6894 90.0373C35.5442 90.9528 35.9984 91.8065 35.1775 91.8283C34.4115 91.8489 33.4946 93.096 33.2746 93.411C33.2816 93.4354 33.2901 93.4586 33.3 93.483C33.3 93.483 34.3763 91.8515 35.2522 91.8283C36.1282 91.8052 35.5527 90.8358 34.5893 89.8548Z" fill="black"/>
<path d="M35.4963 90.5966C35.4963 90.801 35.4709 90.9669 35.4399 90.9669C35.4088 90.9669 35.3834 90.801 35.3834 90.5966C35.3834 90.3922 35.4159 90.4886 35.4469 90.4886C35.4779 90.4886 35.4963 90.3922 35.4963 90.5966Z" fill="#FFD037"/>
<path d="M35.808 90.8409C35.6105 90.9386 35.4384 90.9977 35.4243 90.9694C35.4102 90.9412 35.5569 90.8409 35.7544 90.747C35.9519 90.6532 35.8729 90.72 35.8884 90.747C35.9039 90.774 36.0055 90.7432 35.808 90.8409Z" fill="#FFD037"/>
<path d="M32.0107 89.8548C32.0107 89.8548 31.5226 90.4372 32.2364 91.3153C32.9501 92.1935 33.5384 92.9353 33.3 93.483C33.3 93.483 32.2237 91.8515 31.3477 91.8283C30.4717 91.8052 31.0529 90.8358 32.0107 89.8548Z" fill="#EA4C4C"/>
<path opacity="0.1" d="M32.0107 89.8548C31.9684 89.911 31.9351 89.9725 31.9119 90.0373C31.0571 90.9528 30.6015 91.8065 31.4225 91.8283C32.1884 91.8489 33.1067 93.096 33.3268 93.411C33.3183 93.4354 33.3098 93.4586 33.3 93.483C33.3 93.483 32.2237 91.8515 31.3477 91.8283C30.4717 91.8052 31.0529 90.8358 32.0107 89.8548Z" fill="black"/>
<path d="M31.1037 90.5966C31.1037 90.801 31.1291 90.9669 31.1601 90.9669C31.1911 90.9669 31.2165 90.801 31.2165 90.5966C31.2165 90.3922 31.1855 90.4886 31.1545 90.4886C31.1234 90.4886 31.1037 90.3922 31.1037 90.5966Z" fill="#FFD037"/>
<path d="M30.7919 90.8409C30.9894 90.9386 31.1615 90.9977 31.177 90.9694C31.1925 90.9412 31.043 90.8409 30.8469 90.747C30.6509 90.6532 30.727 90.72 30.7059 90.747C30.6847 90.774 30.5959 90.7432 30.7919 90.8409Z" fill="#FFD037"/>
<path d="M31.2588 93.4059C31.2588 93.4059 32.6243 93.3686 33.0348 93.1011C33.4453 92.8337 35.1337 92.5149 35.2367 92.943C35.3397 93.3711 37.2863 95.0721 35.7459 95.0837C34.2056 95.0952 32.1673 94.8651 31.7568 94.6375C31.3463 94.41 31.2588 93.4059 31.2588 93.4059Z" fill="#081B26"/>
<path opacity="0.2" d="M35.7742 94.9345C34.2338 94.9461 32.1941 94.716 31.7836 94.4884C31.4704 94.3148 31.3463 93.6926 31.3054 93.4046H31.2588C31.2588 93.4046 31.3463 94.4087 31.7568 94.6363C32.1673 94.8638 34.2056 95.094 35.746 95.0824C36.1917 95.0824 36.3441 94.9346 36.3356 94.7211C36.2721 94.8523 36.1042 94.932 35.7742 94.9345Z" fill="black"/>
<path opacity="0.1" d="M86.3836 104C112.047 104 132.851 103.14 132.851 102.079C132.851 101.018 112.047 100.158 86.3836 100.158C60.7201 100.158 39.9157 101.018 39.9157 102.079C39.9157 103.14 60.7201 104 86.3836 104Z" fill="#EA4C4C"/>
<path d="M81.6496 44.6509C81.6496 44.6509 84.6119 49.759 84.8418 50.488C84.9016 50.6904 85.0308 50.8701 85.2104 51.0009C85.39 51.1318 85.6107 51.207 85.8405 51.2157C85.8405 51.2157 88.7915 51.8585 89.4968 51.9447C90.2021 52.0308 96.3156 52.5014 96.3156 52.5014C96.3156 52.5014 97.8672 52.5451 98.0548 52.0308C98.2269 51.5603 101.224 49.0879 102.959 51.2453C103.119 51.4448 103.226 51.676 103.269 51.9199C103.313 52.1638 103.293 52.4137 103.211 52.6492C102.892 53.5749 102.237 55.0445 101.535 54.1304C100.547 52.8447 99.3992 53.2059 99.3992 53.8912C99.3992 54.5765 97.8193 54.3219 97.303 54.4184C97.0209 54.4711 96.0504 54.7064 95.2111 54.9121C94.2369 55.1521 93.2389 55.3032 92.2319 55.3633C90.566 55.4623 88.1101 55.5446 87.2398 55.2451C86.1889 54.8812 84.3565 54.7976 83.5722 54.7784C83.3124 54.7726 83.0616 54.6906 82.8571 54.5444C81.7684 53.7677 80.8477 52.8133 80.1417 51.73C78.9187 49.8014 76.4036 45.8081 76.5729 44.6509C76.7421 43.4938 81.6496 44.6509 81.6496 44.6509Z" fill="#EFB7B9"/>
<path opacity="0.05" d="M81.6496 44.6509C81.6496 44.6509 84.6119 49.759 84.8418 50.488C84.9016 50.6904 85.0308 50.8701 85.2104 51.0009C85.39 51.1318 85.6107 51.207 85.8405 51.2157C85.8405 51.2157 88.7915 51.8585 89.4968 51.9447C90.2021 52.0308 96.3156 52.5014 96.3156 52.5014C96.3156 52.5014 97.8672 52.5451 98.0548 52.0308C98.2269 51.5603 101.224 49.0879 102.959 51.2453C103.119 51.4448 103.226 51.676 103.269 51.9199C103.313 52.1638 103.293 52.4137 103.211 52.6492C102.892 53.5749 102.237 55.0445 101.535 54.1304C100.547 52.8447 99.3992 53.2059 99.3992 53.8912C99.3992 54.5765 97.8193 54.3219 97.303 54.4184C97.0209 54.4711 96.0504 54.7064 95.2111 54.9121C94.2369 55.1521 93.2389 55.3032 92.2319 55.3633C90.566 55.4623 88.1101 55.5446 87.2398 55.2451C86.1889 54.8812 84.3565 54.7976 83.5722 54.7784C83.3124 54.7726 83.0616 54.6906 82.8571 54.5444C81.7684 53.7677 80.8477 52.8133 80.1417 51.73C78.9187 49.8014 76.4036 45.8081 76.5729 44.6509C76.7421 43.4938 81.6496 44.6509 81.6496 44.6509Z" fill="black"/>
<path d="M127.172 92.4994C127.167 95.2314 126.006 97.8562 123.93 99.8269C121.854 101.798 119.024 102.962 116.029 103.078C113.035 103.194 110.106 102.253 107.854 100.45C105.603 98.6466 104.201 96.1211 103.941 93.3994C103.924 93.2272 103.912 93.0549 103.906 92.8852V92.8762C103.9 92.7484 103.898 92.6199 103.898 92.4904C103.898 89.6773 105.124 86.9794 107.306 84.9902C109.489 83.001 112.449 81.8835 115.535 81.8835C118.621 81.8835 121.581 83.001 123.764 84.9902C125.946 86.9794 127.172 89.6773 127.172 92.4904V92.4994Z" fill="#193647"/>
<path d="M115.535 98.2787C119.041 98.2787 121.883 95.6883 121.883 92.493C121.883 89.2977 119.041 86.7074 115.535 86.7074C112.029 86.7074 109.187 89.2977 109.187 92.493C109.187 95.6883 112.029 98.2787 115.535 98.2787Z" fill="#DCE0ED"/>
<path d="M115.535 95.9644C117.638 95.9644 119.344 94.4102 119.344 92.493C119.344 90.5758 117.638 89.0216 115.535 89.0216C113.432 89.0216 111.726 90.5758 111.726 92.493C111.726 94.4102 113.432 95.9644 115.535 95.9644Z" fill="#193647"/>
<path d="M84.973 72.35L56.9501 72.8643V69.0998C57.2011 66.0694 60.6176 65.0061 63.7209 64.6731C66.1472 64.4221 68.6035 64.59 70.9615 65.1681C76.9072 66.603 80.6947 66.8807 82.5609 66.9077C82.9705 66.9133 83.3655 67.0476 83.679 67.2879C83.9926 67.5283 84.2055 67.8599 84.2818 68.2268C84.3707 68.6575 84.4581 69.1268 84.5399 69.5896C84.602 69.9522 84.6613 70.3096 84.7149 70.6426C84.87 71.6017 84.973 72.35 84.973 72.35Z" fill="#193647"/>
<path d="M107.33 93.1783H49.1156C48.6661 93.1825 48.2253 93.0661 47.8478 92.8437C47.4704 92.6212 47.173 92.3026 46.9926 91.9273C46.554 90.972 47.1676 90.3626 47.8221 90.0052C49.1616 89.2816 50.1769 88.1494 50.6884 86.809C51.3091 85.1375 51.9156 82.5224 52.154 78.4365C52.3995 74.2104 54.0781 72.1212 55.8921 71.108C58.2351 69.8018 60.8038 70.2916 60.8038 70.2916L84.4073 70.4639C84.8275 70.6376 85.2161 70.8687 85.5598 71.1492C87.663 72.9337 84.5964 75.2634 84.5964 75.2634C78.0131 81.6057 82.9967 88.0342 82.9967 88.0342H95.0743C97.3308 88.0448 99.5375 87.4291 101.401 86.269C103.033 85.2404 103.658 84.2466 103.909 83.6449C104.095 83.1846 104.284 82.7256 104.51 82.2807C107.678 76.0181 103.857 65.8302 102.208 62.0207C101.799 61.0732 101.524 60.5203 101.524 60.5203L105.311 60.2632L107.709 60.0973H107.733C113.011 68.3952 114.974 76.9219 115.632 83.2399C115.694 83.8351 115.745 84.4124 115.786 84.9665C115.861 86.0201 115.697 87.0764 115.306 88.0701C114.915 89.0638 114.304 89.9737 113.511 90.7435C112.718 91.5133 111.761 92.1266 110.697 92.5454C109.634 92.9642 108.488 93.1796 107.33 93.1783V93.1783Z" fill="#EA4C4C"/>
<path opacity="0.1" d="M84.7163 70.6426H56.9501V69.5896H84.5413C84.6034 69.9457 84.6626 70.3032 84.7163 70.6426Z" fill="black"/>
<path opacity="0.1" d="M85.5612 71.1569H56.1164C56.0398 71.1571 55.964 71.1431 55.8935 71.1157C58.2365 69.8095 60.8052 70.2993 60.8052 70.2993L84.4087 70.4716C84.8289 70.6453 85.2175 70.8764 85.5612 71.1569Z" fill="black"/>
<path d="M85.8066 69.8403H45.8134C45.4948 69.8403 45.2365 70.0758 45.2365 70.3662V70.3675C45.2365 70.6579 45.4948 70.8933 45.8134 70.8933H85.8066C86.1253 70.8933 86.3836 70.6579 86.3836 70.3675V70.3662C86.3836 70.0758 86.1253 69.8403 85.8066 69.8403Z" fill="#DCE0ED"/>
<path opacity="0.1" d="M115.632 83.2424C114.291 84.5718 113.303 85.0951 113.35 83.6924C113.491 79.4496 105.31 60.2671 105.31 60.2671L107.729 60.0999C113.009 68.3914 114.972 76.9181 115.632 83.2424Z" fill="black"/>
<path opacity="0.1" d="M127.102 91.3307C125.712 91.6342 123.999 91.9427 121.883 92.2307C121.096 92.3362 120.249 92.4373 119.344 92.5342C117.181 92.7682 114.68 92.9726 111.791 93.1294C110.973 93.174 110.123 93.2147 109.242 93.2516C107.592 93.3202 105.825 93.3724 103.943 93.4084L103.907 92.8942V92.8852C106.538 91.917 110.678 89.3341 111.344 82.606C113.007 82.022 114.794 81.7936 116.569 81.9384C118.344 82.0832 120.058 82.5973 121.581 83.4411C123.103 84.285 124.392 85.436 125.35 86.8056C126.307 88.1752 126.907 89.7269 127.103 91.341L127.102 91.3307Z" fill="black"/>
<path d="M101.713 93.1783C101.713 93.1783 115.071 91.8566 110.47 73.3053C110.47 73.3053 117.07 78.8209 121.176 81.886C125.282 84.9511 132.602 89.1772 132.602 89.1772C132.602 89.1772 128.232 92.8993 101.713 93.1783Z" fill="#EA4C4C"/>
<path opacity="0.1" d="M101.713 93.1783C101.713 93.1783 115.071 91.8566 110.47 73.3053C110.47 73.3053 117.07 78.8209 121.176 81.886C125.282 84.9511 132.602 89.1772 132.602 89.1772C132.602 89.1772 128.232 92.8993 101.713 93.1783Z" fill="white"/>
<path d="M66.0244 103.1C72.4516 103.1 77.6618 98.3511 77.6618 92.493C77.6618 86.6349 72.4516 81.886 66.0244 81.886C59.5972 81.886 54.387 86.6349 54.387 92.493C54.387 98.3511 59.5972 103.1 66.0244 103.1Z" fill="#193647"/>
<path d="M66.0244 98.2787C69.5302 98.2787 72.3721 95.6883 72.3721 92.493C72.3721 89.2977 69.5302 86.7074 66.0244 86.7074C62.5187 86.7074 59.6767 89.2977 59.6767 92.493C59.6767 95.6883 62.5187 98.2787 66.0244 98.2787Z" fill="#DCE0ED"/>
<path d="M66.0244 95.9644C68.1279 95.9644 69.8331 94.4102 69.8331 92.493C69.8331 90.5758 68.1279 89.0216 66.0244 89.0216C63.921 89.0216 62.2158 90.5758 62.2158 92.493C62.2158 94.4102 63.921 95.9644 66.0244 95.9644Z" fill="#193647"/>
<path opacity="0.1" d="M79.0724 89.307C79.0724 82.4581 73.1042 76.9052 65.7423 76.9052C58.3804 76.9052 52.4122 82.4581 52.4122 89.307C52.4122 89.5967 52.423 89.8835 52.4446 90.1672H79.04C79.0616 89.8835 79.0724 89.5967 79.0724 89.307Z" fill="black"/>
<path d="M78.5787 89.0936C78.5787 82.498 72.832 77.1508 65.7423 77.1508C58.6526 77.1508 52.9059 82.498 52.9059 89.0936C52.9059 89.3726 52.9172 89.6478 52.9369 89.9216H78.5477C78.5675 89.6478 78.5787 89.3726 78.5787 89.0936Z" fill="#EA4C4C"/>
<path opacity="0.1" d="M78.5787 89.0936C78.5787 89.2852 78.5787 89.4793 78.5632 89.6645C78.5632 89.7506 78.5533 89.8355 78.5477 89.9216H52.9369C52.9369 89.8355 52.9256 89.7506 52.9214 89.6645C52.9115 89.4755 52.9059 89.2788 52.9059 89.0936C52.9059 82.498 58.6526 77.1508 65.7423 77.1508C72.832 77.1508 78.5787 82.498 78.5787 89.0936Z" fill="white"/>
<path opacity="0.1" d="M78.5632 89.6709C78.5632 89.757 78.5534 89.8419 78.5477 89.928H52.9369C52.9369 89.8419 52.9256 89.757 52.9214 89.6709H78.5632Z" fill="black"/>
<path opacity="0.1" d="M80.2715 90.1787H48.7954C47.9641 90.1787 47.2903 90.7926 47.2903 91.5499C47.2903 92.3072 47.9641 92.9211 48.7954 92.9211H80.2715C81.1027 92.9211 81.7766 92.3072 81.7766 91.5499C81.7766 90.7926 81.1027 90.1787 80.2715 90.1787Z" fill="black"/>
<path d="M80.2715 89.9216H48.7954C47.9641 89.9216 47.2903 90.5355 47.2903 91.2928C47.2903 92.0501 47.9641 92.664 48.7954 92.664H80.2715C81.1027 92.664 81.7766 92.0501 81.7766 91.2928C81.7766 90.5355 81.1027 89.9216 80.2715 89.9216Z" fill="#DCE0ED"/>
<path opacity="0.1" d="M113.336 72.0355C114.187 71.685 114.092 69.819 113.124 67.8676C112.155 65.9163 110.681 64.6185 109.831 64.9689C108.981 65.3194 109.076 67.1854 110.044 69.1368C111.012 71.0882 112.486 72.386 113.336 72.0355Z" fill="black"/>
<path d="M113.477 71.9065C114.328 71.5561 114.232 69.69 113.264 67.7387C112.296 65.7873 110.822 64.4895 109.972 64.84C109.121 65.1904 109.217 67.0564 110.185 69.0078C111.153 70.9592 112.627 72.257 113.477 71.9065Z" fill="#DCE0ED"/>
<path opacity="0.1" d="M107.708 60.0999V62.1146H103.405C103.005 62.115 102.605 62.0857 102.209 62.0272C101.8 61.0796 101.525 60.5268 101.525 60.5268L105.312 60.2696L107.708 60.0999Z" fill="black"/>
<path d="M107.708 61.8523H103.405C99.6263 61.8523 96.5639 59.2809 96.5639 56.0962V55.5627C96.5639 52.3844 99.6263 49.8079 103.405 49.8079L107.708 50.164V61.8523Z" fill="#EA4C4C"/>
<path d="M100.619 53.215C100.619 53.215 103.194 54.4685 101.713 56.5899C101.713 56.5899 99.8957 59.3053 97.0392 59.0482L95.9996 53.215C95.9996 53.215 99.4203 52.9257 100.619 53.215Z" fill="#EA4C4C"/>
<path opacity="0.1" d="M99.6305 53.1019C100.04 53.116 100.44 53.2137 100.803 53.3877C101.165 53.5617 101.48 53.8076 101.724 54.1073C102.182 54.6859 102.456 55.5293 101.715 56.59C101.715 56.59 99.8985 59.3054 97.0421 59.0482L96.0024 53.215C96.0024 53.215 98.1423 53.0286 99.6305 53.1019Z" fill="black"/>
<path opacity="0.1" d="M107.567 50.164H108.396C109.093 50.164 109.761 50.4162 110.253 50.8652C110.746 51.3141 111.022 51.923 111.022 52.558V59.4596C111.022 60.0945 110.746 60.7034 110.253 61.1524C109.761 61.6013 109.093 61.8535 108.396 61.8535H107.567V50.164Z" fill="black"/>
<path d="M107.708 50.164H108.537C109.234 50.164 109.902 50.4162 110.394 50.8652C110.887 51.3141 111.164 51.923 111.164 52.558V59.4596C111.164 60.0945 110.887 60.7034 110.394 61.1524C109.902 61.6013 109.234 61.8535 108.537 61.8535H107.708V50.164Z" fill="#DCE0ED"/>
<path d="M77.1625 65.1758C77.1625 65.1758 77.8269 65.3969 78.7141 65.7055C80.1247 66.2005 82.1137 66.9231 82.8049 67.3191C83.4961 67.7151 86.0732 68.3656 88.0029 68.8233C89.4335 69.1611 90.9065 69.3266 92.3843 69.3158C93.8851 69.3029 95.7034 69.29 96.2056 69.29C96.2934 69.2894 96.3812 69.2954 96.4679 69.308C96.9955 69.3878 96.9743 69.7105 96.9617 69.7876V69.8043C93.8583 71.5182 90.0963 79.1899 89.8621 80.4756C89.6858 81.4399 88.1355 84.1129 87.371 85.3908C87.1143 85.819 86.9478 86.0903 86.9478 86.0903L87.8887 87.0751L90.6154 88.1898L93.201 89.2184C93.201 89.2184 95.9291 89.3469 95.9756 89.2184C96.0222 89.0898 96.0222 87.7617 96.0222 87.7617C95.6902 87.5663 95.3752 87.3479 95.0799 87.1085C94.4543 86.612 93.8732 86.0707 93.3421 85.4898C91.8384 83.8608 94.8472 80.7327 94.8472 80.7327L100.631 73.8761C100.631 73.8761 101.1 73.1047 103.357 70.019C105.614 66.9334 103.357 65.262 103.357 65.262L99.3851 63.759C92.4957 61.4087 84.1858 59.5252 84.1858 59.5252L84.0674 59.511L82.3055 59.3105L77.1625 65.1758Z" fill="#EFB7B9"/>
<path d="M94.912 88.1898C94.912 88.1898 95.4058 88.7208 95.0362 88.7684C94.6666 88.8159 93.6961 88.6244 93.6961 88.6244L87.5417 85.6672C87.5417 85.6672 86.8716 85.2327 86.7137 86.0851C86.5557 86.9375 86.4485 86.8565 86.4485 86.8565C86.4485 86.8565 85.6374 88.4469 86.4485 88.7761C87.2596 89.1052 92.1318 90.4076 92.1318 90.4076C92.1318 90.4076 99.2031 91.8707 99.8731 90.1826C100.543 88.4945 98.6741 88.7851 98.6741 88.7851C98.6741 88.7851 96.3466 88.2708 95.5525 87.2422C95.5468 87.2422 94.4014 87.5315 94.912 88.1898Z" fill="#C14545"/>
<path opacity="0.05" d="M103.352 65.262L99.3794 63.759C92.49 61.4087 84.1802 59.5252 84.1802 59.5252L84.0617 59.511L82.2999 59.3105L77.1625 65.1758C77.1625 65.1758 77.8269 65.3969 78.7141 65.7055C80.1247 66.2005 82.1137 66.9231 82.8049 67.3191C83.4961 67.7151 86.0732 68.3656 88.0029 68.8233C89.4335 69.1611 90.9065 69.3266 92.3843 69.3158C93.8851 69.3029 95.7034 69.29 96.2056 69.29C96.2934 69.2894 96.3812 69.2954 96.4679 69.308C96.9955 69.3878 96.9743 69.7105 96.9616 69.7876V69.8043C93.8583 71.5182 90.0963 79.1899 89.8621 80.4756C89.6858 81.4399 88.1355 84.1129 87.371 85.3908L87.268 85.5631C87.0635 85.5323 86.8082 85.5991 86.7179 86.0851C86.5585 86.9362 86.4527 86.8565 86.4527 86.8565C86.4527 86.8565 85.6416 88.4469 86.4527 88.7761C87.2638 89.1052 92.1318 90.4076 92.1318 90.4076C92.1318 90.4076 99.2031 91.8707 99.8731 90.1826C100.543 88.4945 98.6741 88.7851 98.6741 88.7851C98.6741 88.7851 96.3466 88.2708 95.5525 87.2422C95.4821 87.2609 95.4133 87.2841 95.3465 87.3117C95.2633 87.25 95.1744 87.1831 95.0799 87.1085C94.4543 86.612 93.8732 86.0707 93.3421 85.4898C91.8384 83.8608 94.8472 80.7327 94.8472 80.7327L100.631 73.8761C100.631 73.8761 101.1 73.1047 103.357 70.019C105.614 66.9334 103.352 65.262 103.352 65.262Z" fill="black"/>
<path d="M72.4257 36.5022L72.6401 36.749L72.76 36.8866L73.5076 37.7442C73.5076 37.7442 75.2921 38.2662 76.8564 38.6043C78.4857 38.9553 79.8751 39.1083 78.7706 38.2687C78.085 37.748 78.0399 36.8763 78.2896 35.9416C78.4998 35.2223 78.8009 34.5277 79.1867 33.8717C79.2422 33.7739 79.2972 33.6788 79.3518 33.5862C79.7021 32.9956 80.0902 32.4242 80.5141 31.875C79.5112 31.2419 78.4709 30.6595 77.3981 30.1303C76.106 29.5209 75.0452 29.2547 75.7181 30.4607C76.1497 31.2321 76.0086 32.0987 75.6052 32.928C75.5742 32.9935 75.5403 33.0565 75.5051 33.1247C75.1429 33.7673 74.6957 34.367 74.1735 34.9105C73.6384 35.4827 73.0539 36.015 72.4257 36.5022V36.5022Z" fill="#EFB7B9"/>
<path d="M81.3604 56.0872L82.3168 56.8831L83.2408 60.123H81.699L79.9964 58.1045L81.3604 56.0872Z" fill="#C14545"/>
<path opacity="0.1" d="M79.9964 58.1045L81.0261 59.3246L81.699 60.123H83.2408L83.0828 59.5689L82.4099 57.2083L82.3168 56.8831L81.3604 56.0872L80.0542 58.0183L79.9964 58.1045Z" fill="black"/>
<path opacity="0.1" d="M79.9964 58.1045L81.0261 59.3246L81.699 60.123H83.2408L83.0828 59.5689L82.4099 57.2083L82.3168 56.8831L81.3604 56.0872L80.0542 58.0183L79.9964 58.1045Z" fill="black"/>
<path d="M74.8717 66.6299C74.8717 66.6299 75.5361 66.8511 76.4233 67.1597C77.8339 67.6546 79.8229 68.3772 80.5141 68.7732C81.2053 69.1692 83.7824 69.8198 85.7121 70.2775C87.1427 70.6157 88.6156 70.7816 90.0934 70.7712C91.5943 70.7583 93.4126 70.7455 93.9148 70.7455C94.0026 70.7448 94.0904 70.7508 94.1771 70.7635C94.7047 70.8432 94.6835 71.1659 94.6708 71.243V71.2597C91.5675 72.9736 87.8055 80.6453 87.5713 81.931C87.395 82.8953 85.8447 85.5683 85.0802 86.8462C84.8235 87.2744 84.657 87.5457 84.657 87.5457L85.5979 88.5305L88.3231 89.6439L90.9088 90.6725C90.9088 90.6725 93.6369 90.801 93.6834 90.6725C93.73 90.5439 93.73 89.2158 93.73 89.2158C93.398 89.0204 93.0829 88.8021 92.7877 88.5626C92.1621 88.0661 91.5809 87.5248 91.0498 86.9439C89.5461 85.315 92.5549 82.1869 92.5549 82.1869L98.3384 75.3303C98.3384 75.3303 98.8081 74.5588 101.065 71.4732C103.322 68.3875 101.065 66.7161 101.065 66.7161L97.4455 64.83C91.8031 61.7019 83.8558 59.9019 83.8558 59.9019L83.7373 59.8878L81.9755 59.6872L74.8717 66.6299Z" fill="#EFB7B9"/>
<path opacity="0.1" d="M84.6556 87.5444L85.5964 88.5292L88.3231 89.6439L90.9088 90.6724C90.9088 90.6724 93.6369 90.801 93.6834 90.6724C93.73 90.5439 93.73 89.2158 93.73 89.2158C93.398 89.0204 93.0829 88.8021 92.7877 88.5626C92.4957 88.7053 92.1642 88.9728 92.4844 89.3868C92.4844 89.3868 92.9781 89.9165 92.6085 89.9653C92.239 90.0142 91.2685 89.8213 91.2685 89.8213L85.114 86.8642L85.0787 86.8424C84.8192 87.2731 84.6556 87.5444 84.6556 87.5444Z" fill="black"/>
<path d="M92.6212 89.6439C92.6212 89.6439 93.115 90.1736 92.744 90.2225C92.373 90.2713 91.4039 90.0772 91.4039 90.0772L85.2509 87.1201C85.2509 87.1201 84.5808 86.6868 84.4214 87.5379C84.262 88.3891 84.1577 88.3093 84.1577 88.3093C84.1577 88.3093 83.3466 89.901 84.1577 90.2302C84.9687 90.5593 89.8353 91.8566 89.8353 91.8566C89.8353 91.8566 96.9052 93.3184 97.5753 91.6316C98.2453 89.9448 96.3763 90.2328 96.3763 90.2328C96.3763 90.2328 94.0488 89.7185 93.256 88.6899C93.2602 88.6951 92.1092 88.9843 92.6212 89.6439Z" fill="#C14545"/>
<path opacity="0.1" d="M75.2469 32.6014C76.0622 33.1157 77.3064 33.9295 78.3686 33.9295C78.6426 33.9295 78.9161 33.9097 79.1867 33.8704C79.5796 33.1785 80.023 32.5114 80.5141 31.8737C80.5141 31.8737 74.3075 27.9305 75.7181 30.4594C76.1836 31.3003 75.7251 31.713 75.2469 32.6014Z" fill="black"/>
<path d="M73.2904 29.0439C73.2897 29.8158 73.5012 30.5756 73.9056 31.2539C74.3099 31.9321 74.8942 32.5072 75.6052 32.9267C75.7648 33.0216 75.9306 33.1075 76.1017 33.1839C77.0902 33.6333 78.2125 33.7767 79.2984 33.5923C80.3843 33.408 81.3747 32.9059 82.1194 32.1623C82.864 31.4186 83.3223 30.474 83.4248 29.4715C83.5273 28.4691 83.2684 27.4635 82.6873 26.6072C82.1062 25.751 81.2346 25.0908 80.2048 24.7268C79.1749 24.3627 78.0429 24.3147 76.9803 24.5899C75.9178 24.8651 74.9827 25.4486 74.3168 26.2519C73.6509 27.0552 73.2906 28.0345 73.2904 29.0413V29.0439Z" fill="#EFB7B9"/>
<path opacity="0.1" d="M74.8717 66.6299C74.8717 66.6299 75.5361 66.8511 76.4233 67.1597C76.9805 66.7122 77.5518 66.2802 77.7902 66.2018C78.3079 66.0295 80.0006 65.1295 79.9541 64.8724C79.9075 64.6153 80.6594 63.6304 81.3167 63.4581C81.974 63.2859 81.5988 62.3872 81.5988 62.3872C81.5988 62.3872 82.8684 61.959 83.1843 61.3586C83.5003 60.7582 84.468 59.9868 84.1379 60.0305C83.9948 60.0093 83.8582 59.9606 83.7373 59.8878L81.9755 59.6872L74.8717 66.6299Z" fill="black"/>
<path d="M71.0151 65.0871C71.0151 65.0871 73.179 66.716 73.2791 67.4437C73.3793 68.1715 74.8237 68.1303 74.8237 68.1303C74.8237 68.1303 76.9876 66.2442 77.5039 66.0732C78.0202 65.9022 79.7143 65.0009 79.6677 64.7438C79.6212 64.4866 80.373 63.5018 81.0304 63.3295C81.6877 63.1572 81.3125 62.2585 81.3125 62.2585C81.3125 62.2585 82.582 61.8304 82.898 61.23C83.214 60.6296 84.1816 59.8581 83.8516 59.9019C83.7585 59.9134 83.4608 59.7733 83.0828 59.5689C82.6187 59.3117 82.0305 58.9633 81.5509 58.6689C81.0431 58.3552 80.6552 58.1057 80.6552 58.1057C80.6552 58.1057 80.4337 58.0697 80.0542 58.0196C78.0075 57.7496 71.341 57.0605 69.7936 59.3053C69.5873 59.602 69.4326 59.9259 69.3351 60.2657C68.6425 62.6571 71.0151 65.0871 71.0151 65.0871Z" fill="#C14545"/>
<path opacity="0.1" d="M73.2777 59.8903C73.2777 59.8903 71.0687 61.0269 70.245 61.0269C69.4212 61.0269 73.2777 59.8903 73.2777 59.8903Z" fill="black"/>
<path opacity="0.1" d="M74.7532 60.7582C74.7532 60.7582 71.4637 61.7661 71.4637 62.5581C71.4637 63.3501 71.1562 60.4367 74.7532 60.7582Z" fill="black"/>
<path opacity="0.1" d="M82.6286 56.2184L82.582 56.2762C82.6032 56.2614 82.6194 56.2413 82.6286 56.2184V56.2184Z" fill="black"/>
<path opacity="0.1" d="M72.4257 36.5022L72.6401 36.7491L72.76 36.8866L73.5076 37.7442C73.5076 37.7442 75.2921 38.2662 76.8564 38.6043C78.4857 38.9553 79.8751 39.1083 78.7706 38.2688C78.085 37.7481 78.0399 36.8764 78.2896 35.9417L78.2402 35.8838C78.2402 35.8838 78.2896 36.7504 77.7268 36.7671C76.9678 36.7889 76.958 36.5562 76.2583 36.2875C75.3569 35.9404 74.433 35.3605 74.1735 34.9092C73.6384 35.4819 73.054 36.0146 72.4257 36.5022Z" fill="black"/>
<path opacity="0.1" d="M69.3351 60.2619C69.7199 60.4119 70.1533 60.4211 70.5454 60.2876C72.0025 59.8582 74.3074 58.8245 75.388 59.2771C76.2541 59.6396 79.7425 59.6293 81.0304 59.3246C81.3506 59.2488 81.5339 59.1549 81.5057 59.0444C81.4875 58.917 81.5045 58.7875 81.5551 58.6676C81.7046 58.2318 82.1109 57.6262 82.4141 57.2084L82.3211 56.8831L81.3647 56.0872L80.0584 58.0158C78.0117 57.7458 71.3452 57.0567 69.7978 59.3015C69.59 59.5979 69.4339 59.9219 69.3351 60.2619Z" fill="black"/>
<path d="M68.383 59.259C68.383 59.259 68.9472 60.4586 70.4043 60.0304C71.8615 59.6023 74.1664 58.5673 75.2469 59.0199C76.3274 59.4724 81.5015 59.3439 81.3605 58.7872C81.2194 58.2305 82.63 56.4729 82.63 56.4729C82.63 56.4729 81.8598 56.3443 81.383 54.052C81.3125 53.7177 81.249 53.3371 81.1954 52.9051C81.0789 52.0204 81.0515 51.1278 81.1136 50.2386C81.304 47.7572 82.2576 46.7441 82.2576 46.7441C82.2576 46.7441 83.5737 45.3735 82.4452 43.4874C81.8542 42.4987 79.4688 39.7589 79.4364 38.5375C79.4068 37.4292 78.2444 36.1409 78.2444 36.1409C78.2444 36.1409 78.2938 37.0075 77.731 37.0242C76.9721 37.0461 76.9622 36.8133 76.2626 36.5446C75.2342 36.1486 74.1777 35.4505 74.1086 34.9838C74.1086 34.9838 69.7978 34.7871 68.8569 38.7727C67.9161 42.7584 68.2461 44.9441 68.3872 45.4159C68.5283 45.8878 69.7498 51.973 68.7624 54.5444C67.775 57.1158 68.383 59.259 68.383 59.259Z" fill="#193647"/>
<path opacity="0.1" d="M75.4119 52.2572C76.1894 53.4527 77.2296 54.4888 78.4673 55.3004C79.2927 55.3067 80.1169 55.3569 80.9358 55.4508C80.8653 55.1166 80.7948 54.736 80.7482 54.304C80.6317 53.4193 80.6043 52.5267 80.6664 51.6375C80.531 51.5756 80.4116 51.488 80.3163 51.3807C80.2209 51.2734 80.1518 51.1488 80.1135 51.0152C79.8779 50.2862 77.7803 46.8148 77.7803 46.8148C77.7803 46.8148 72.8729 45.6577 72.7022 46.8148C72.5315 47.9719 74.189 50.3286 75.4119 52.2572Z" fill="black"/>
<path d="M77.0384 44.6509C77.0384 44.6509 80.0006 49.759 80.2306 50.488C80.2904 50.6904 80.4195 50.8701 80.5991 51.0009C80.7788 51.1318 80.9995 51.207 81.2293 51.2157C81.2293 51.2157 84.1802 51.8585 84.8855 51.9447C85.5908 52.0308 91.7086 52.5014 91.7086 52.5014C91.7086 52.5014 93.2602 52.5451 93.4479 52.0308C93.62 51.5603 96.6175 49.0879 98.3525 51.2453C98.5125 51.4448 98.6186 51.676 98.6622 51.9199C98.7058 52.1638 98.6857 52.4137 98.6036 52.6492C98.2848 53.5749 97.6303 55.0445 96.9278 54.1304C95.9404 52.8447 94.7922 53.2059 94.7922 53.8912C94.7922 54.5765 93.2123 54.3219 92.696 54.4184C92.4139 54.4711 91.4434 54.7064 90.6041 54.9121C89.6276 55.1525 88.6272 55.3037 87.6179 55.3633C85.9519 55.4623 83.4961 55.5446 82.6257 55.2451C81.5763 54.8812 79.7439 54.7976 78.9582 54.7784C78.6984 54.7726 78.4475 54.6906 78.243 54.5444C77.1549 53.7676 76.2346 52.8132 75.529 51.73C74.306 49.8014 71.791 45.8081 71.9602 44.6509C72.1295 43.4938 77.0384 44.6509 77.0384 44.6509Z" fill="#EFB7B9"/>
<path opacity="0.1" d="M76.051 37.5732C76.051 37.5732 77.6379 39.9736 78.3728 41.6874C79.1077 43.4012 80.0006 46.4021 80.0006 46.4021L75.5798 45.9302L75.2046 45.3735C75.2046 45.3735 72.0477 47.1735 72.4243 47.9449C72.8009 48.7163 71.578 46.7878 71.6725 44.6021C71.767 42.4164 71.3325 38.5156 71.6725 37.5732C72.0124 36.6308 75.0113 36.8442 76.051 37.5732Z" fill="black"/>
<path d="M71.6781 44.3449C71.5836 46.5306 72.8066 48.4592 72.4299 47.6877C72.0533 46.9163 75.2102 45.1163 75.2102 45.1163L75.5812 45.6731L80.0006 46.1449C80.0006 46.1449 79.1077 43.1441 78.3728 41.4303C77.9313 40.4607 77.4263 39.5161 76.8606 38.6017C76.4078 37.8522 76.0509 37.316 76.0509 37.316C75.443 36.8879 74.1523 36.6372 73.1225 36.6963C72.9621 36.7046 72.8024 36.7223 72.6443 36.749C72.2212 36.8249 71.8798 36.9715 71.7289 37.2029C71.7058 37.2387 71.6869 37.2766 71.6724 37.316C71.3339 38.2584 71.7684 42.1592 71.6781 44.3449Z" fill="#193647"/>
<path opacity="0.1" d="M69.7033 50.3286C69.7033 50.3286 71.5723 52.675 72.1365 52.7393C72.1323 52.7444 69.7343 52.2572 69.7033 50.3286Z" fill="black"/>
<path opacity="0.1" d="M69.7033 53.6714C69.7033 53.6714 73.2298 56.9178 74.3583 56.95C75.4867 56.9821 69.7033 53.6714 69.7033 53.6714Z" fill="black"/>
<path opacity="0.1" d="M69.7033 55.0266C69.7033 55.0266 71.9602 57.4372 72.1013 57.4372C72.2423 57.4372 69.6638 56.6015 69.7033 55.0266Z" fill="black"/>
<path opacity="0.1" d="M71.7246 37.203C72.0874 37.1537 72.4379 37.0466 72.76 36.8867C72.8813 36.8288 73.0012 36.7645 73.1183 36.6964C73.5808 36.4143 74.0117 36.0913 74.4048 35.7321C75.0537 35.1574 75.7011 34.53 75.9691 33.7419C76.0294 33.5602 76.0737 33.3745 76.1017 33.1864C76.2625 32.1977 76.1271 31.1062 76.9029 30.4338C77.0487 30.3084 77.216 30.2054 77.3981 30.1291C78.4983 29.6521 80.0937 29.9606 80.9147 29.1005C81.4366 28.5554 81.4239 27.7981 81.8245 27.2054C81.9994 26.9482 82.321 26.7258 82.606 26.4892C82.191 25.9135 81.6403 25.4294 80.9939 25.0723C80.3475 24.7152 79.6219 24.4941 78.8698 24.4252C78.1178 24.3562 77.3584 24.4412 76.647 24.6738C75.9355 24.9064 75.29 25.2809 74.7576 25.7698C74.2251 26.2587 73.8191 26.8498 73.5692 27.5C73.3193 28.1501 73.2317 28.8429 73.3129 29.5278C73.3941 30.2127 73.6421 30.8725 74.0386 31.4589C74.4352 32.0454 74.9704 32.5438 75.6052 32.9177C75.5742 32.9833 75.5403 33.0463 75.505 33.1144C74.536 34.9144 72.4257 36.4933 72.4257 36.4933L72.6401 36.7401C72.2127 36.8288 71.8756 36.9715 71.7246 37.203Z" fill="black"/>
<path d="M80.6326 28.9745C79.6776 29.9722 77.6703 29.391 76.6195 30.3052C75.6969 31.1062 76.0637 32.5037 75.687 33.6133C75.419 34.4014 74.7716 35.0275 74.1227 35.6035C73.1776 36.4418 71.9687 37.2929 70.6766 37.0525C69.9106 36.9098 69.1602 36.3878 68.4196 36.6282C68.0515 36.7491 67.7877 37.0396 67.5126 37.2955C66.5783 38.1634 65.3638 38.736 64.0468 38.9296C63.7864 38.9832 63.5149 38.9716 63.2611 38.8962C62.8661 38.7496 62.6531 38.3562 62.2934 38.1466C61.5881 37.7352 60.6825 38.1569 59.9504 38.5246C57.903 39.5351 55.6429 40.1364 53.3206 40.2887C50.9983 40.441 48.6671 40.1408 46.482 39.4079L47.6232 38.8936C47.3806 38.4423 46.7246 38.3433 46.3071 38.0129C45.4466 37.3328 45.953 35.9725 46.8629 35.349C47.7727 34.7254 48.9506 34.5081 49.8928 33.9257C50.0847 33.8074 50.2793 33.6505 50.2977 33.441C50.2946 33.2871 50.241 33.1375 50.1439 33.0116C49.6418 32.2054 49.086 31.3402 49.1988 30.4183C49.3709 29.004 51.065 28.1349 52.6209 28.0359C54.1768 27.9369 55.7172 28.3638 57.2759 28.3882C57.8402 28.3972 58.4312 28.347 58.915 28.0809C59.5907 27.7106 59.9307 27.0048 60.3411 26.3915C61.0738 25.3026 62.1237 24.4204 63.3739 23.8433C64.7845 23.194 66.3813 22.9664 67.8483 22.429C69.3464 21.8813 70.709 21.0147 72.2762 20.6663C74.5515 20.152 76.989 20.8244 78.954 21.9867C79.9005 22.546 82.9234 24.3408 82.9037 25.4889C82.8881 26.1704 81.9162 26.5394 81.5481 27.0742C81.1418 27.6721 81.1545 28.4293 80.6326 28.9745Z" fill="#081B26"/>
<g opacity="0.1">
<path opacity="0.1" d="M50.0057 32.3674C50.1021 32.4936 50.1556 32.643 50.1594 32.7968C50.1538 32.851 50.1371 32.9038 50.1101 32.9524C49.6954 32.2864 49.2637 31.5805 49.1946 30.8374C49.378 31.3684 49.701 31.8788 50.0057 32.3674Z" fill="black"/>
<path opacity="0.1" d="M46.1689 37.3688C46.585 37.6992 47.2409 37.7982 47.4849 38.2495L47.0815 38.432C46.8097 38.3155 46.5512 38.1747 46.3099 38.0116C46.1569 37.8874 46.0376 37.7325 45.9613 37.5592C45.8849 37.3859 45.8536 37.1988 45.8698 37.0126C45.9417 37.1487 46.0435 37.27 46.1689 37.3688V37.3688Z" fill="black"/>
<path opacity="0.1" d="M59.8122 37.8817C60.5443 37.514 61.4513 37.0923 62.1552 37.5037C62.5135 37.7133 62.7279 38.1067 63.1228 38.2533C63.3762 38.3287 63.6472 38.3403 63.9071 38.2867C65.2245 38.0931 66.4395 37.5205 67.3744 36.6526C67.648 36.3955 67.9118 36.1062 68.2814 35.9853C69.0177 35.7449 69.7682 36.2669 70.5383 36.4096C71.8304 36.65 73.0379 35.7989 73.9844 34.9606C74.6333 34.3859 75.2794 33.7585 75.5474 32.9704C75.9254 31.8608 75.5587 30.4633 76.4812 29.6623C77.5349 28.7481 79.538 29.3293 80.4943 28.3316C81.0148 27.7864 81.0036 27.0292 81.4042 26.4365C81.7427 25.9363 82.6201 25.5815 82.7442 24.9785C82.8412 25.1359 82.8949 25.3123 82.9008 25.4928C82.8853 26.1742 81.9134 26.5432 81.5452 27.078C81.1446 27.6707 81.1559 28.428 80.6354 28.9731C79.679 29.9708 77.6731 29.3897 76.6222 30.3038C75.6997 31.1048 76.0665 32.5024 75.6884 33.6119C75.4204 34.4001 74.7744 35.0262 74.1255 35.6022C73.179 36.4405 71.9715 37.2916 70.6794 37.0512C69.912 36.9085 69.1616 36.3865 68.4224 36.6269C68.0529 36.7477 67.7891 37.0383 67.5154 37.2942C66.5805 38.162 65.3656 38.7346 64.0482 38.9283C63.7882 38.9818 63.5172 38.9703 63.2639 38.8949C62.8689 38.7483 62.6545 38.3549 62.2962 38.1453C61.5909 37.7339 60.6853 38.1556 59.9532 38.5233C57.9058 39.5337 55.6457 40.1351 53.3234 40.2874C51.0011 40.4397 48.6699 40.1394 46.4848 39.4066L47.2734 39.0504C49.3449 39.6177 51.5189 39.8064 53.6706 39.6058C55.8224 39.4053 57.9095 38.8194 59.8122 37.8817V37.8817Z" fill="black"/>
</g>
<path opacity="0.1" d="M94.6708 71.2417L95.8571 70.7185V70.514C95.8571 70.4356 94.9106 70.6092 94.1771 70.757C94.7047 70.8419 94.6835 71.1646 94.6708 71.2417Z" fill="black"/>
<path d="M95.702 59.4185C97.2803 59.4185 98.5599 57.9996 98.5599 56.2492C98.5599 54.4989 97.2803 53.08 95.702 53.08C94.1236 53.08 92.8441 54.4989 92.8441 56.2492C92.8441 57.9996 94.1236 59.4185 95.702 59.4185Z" fill="#EA4C4C"/>
<path d="M68.1953 52.1247L63.601 56.2544L48.4977 56.0139L52.6505 52.1247H68.1953Z" fill="#F25C5C"/>
<path d="M68.1953 66.2519V52.1247L63.601 56.2544V70.0782L68.1953 66.2519Z" fill="#B77B7F"/>
<path d="M48.4977 56.0139V70.0782H63.601V56.2543L48.4977 56.0139Z" fill="#F25C5C"/>
<path opacity="0.3" d="M48.4977 56.0139V70.0782H63.601V56.2543L48.4977 56.0139Z" fill="white"/>
<path d="M62.3738 60.1256L51.1412 58.3681L49.677 65.0897L61.2411 67.026L62.3738 60.1256Z" fill="#DCE0ED"/>
<path d="M60.1549 61.6954L52.604 60.6142L52.415 61.5116L59.9659 62.679L60.1549 61.6954Z" fill="#EA4C4C"/>
<path d="M58.0785 63.615L53.7833 63.0467L53.5942 64.0431L58.0785 64.6166V63.615Z" fill="#EA4C4C"/>
<path d="M66.3376 59.5393L66.133 53.9774L64.9524 55.0394L65.1583 60.6142L66.3376 59.5393Z" fill="#193647"/>
<path d="M51.1313 53.548L65.645 53.7267L66.133 53.9774L64.9524 55.0394L64.5447 54.8208L50.1693 54.4492L51.1313 53.548Z" fill="#193647"/>
</svg>
