<svg width="468" height="362" viewBox="0 0 468 362" fill="none" xmlns="http://www.w3.org/2000/svg">
<g clip-path="url(#clip0)">
<path d="M207.886 82.314C188.623 82.3289 169.493 79.1202 151.291 72.8211C126.888 64.3905 106.897 52.7621 91.8732 38.2586C63.4538 10.8238 40.154 6.68929 25.6154 8.05071C9.87741 9.52511 0.716717 17.5778 0.626069 17.659L0 16.9616C0.0924765 16.8786 9.44203 8.64313 25.467 7.12366C34.8644 6.23321 44.6917 7.7847 54.6767 11.7365C67.1284 16.6645 79.8624 25.3612 92.5247 37.5848C107.45 51.9928 127.325 63.5502 151.597 71.9355C196.156 87.3291 246.375 83.6022 289.378 61.7098C303.616 54.4609 317.689 49.5129 331.204 47.0035C348.247 43.8383 364.41 44.573 379.247 49.1856C411.852 59.3214 434.122 58.7839 447.064 56.5492C461.027 54.1376 467.362 49.3114 467.424 49.2629L468 50.0024C467.738 50.2062 461.415 55.0213 447.223 57.4724C434.18 59.7254 411.75 60.2711 378.969 50.08C345.777 39.7628 312.16 51.163 289.804 62.5443C268.549 73.4225 245.34 79.9649 221.529 81.7902C216.965 82.1392 212.417 82.3138 207.886 82.314Z" fill="#193647"/>
<path d="M205.993 93.9393C211.241 93.9393 215.495 89.6886 215.495 84.4451C215.495 79.2015 211.241 74.9508 205.993 74.9508C200.745 74.9508 196.491 79.2015 196.491 84.4451C196.491 89.6886 200.745 93.9393 205.993 93.9393Z" fill="#F25C5C"/>
<path d="M353.198 55.9955C358.446 55.9955 362.7 51.7448 362.7 46.5012C362.7 41.2577 358.446 37.007 353.198 37.007C347.95 37.007 343.696 41.2577 343.696 46.5012C343.696 51.7448 347.95 55.9955 353.198 55.9955Z" fill="#F25C5C"/>
<path d="M47.0683 18.9885C52.3159 18.9885 56.5699 14.7378 56.5699 9.49427C56.5699 4.25073 52.3159 0 47.0683 0C41.8207 0 37.5667 4.25073 37.5667 9.49427C37.5667 14.7378 41.8207 18.9885 47.0683 18.9885Z" fill="#F25C5C"/>
<path d="M274.131 226.952V318.686H288.566V235.029H346.304V318.686H360.739V135.219H346.304C341.521 135.219 334.179 160.111 334.179 185.124C334.179 203.978 336.383 220.135 339.516 226.952H274.131ZM346.304 226.952H346.164C346.211 226.85 346.258 226.741 346.304 226.635V226.952Z" fill="#193647"/>
<path d="M327.622 89.8137H327.622C315.774 89.8137 306.169 100.465 306.169 113.604V130.298H311.307L314.281 124.113L313.538 130.298H346.563L349.268 124.675L348.592 130.298H352.31V117.19C352.31 102.071 341.257 89.8137 327.622 89.8137Z" fill="#081B26"/>
<path d="M303.04 198.879L289.868 204.473L244.094 241.656C242.411 243.723 241.379 246.243 241.13 248.896C240.801 253.173 226.97 275.549 231.909 278.511C236.849 281.472 254.632 290.357 255.62 284.434C256.608 278.511 261.876 253.173 261.876 253.173L306.004 213.687L303.04 198.879Z" fill="#081B26"/>
<path d="M251.339 279.498L245.74 295.95C245.74 295.95 251.668 302.202 248.704 307.467V325.565H244.094L242.777 316.023C242.777 316.023 237.526 325.445 234.873 325.565C229.313 325.818 218.303 327.794 217.974 324.833C217.644 321.871 226.311 318.984 226.311 318.984L235.532 293.647L239.484 278.182L251.339 279.498Z" fill="#081B26"/>
<path d="M337.288 194.602C337.288 194.602 340.252 223.558 331.69 228.823C323.128 234.088 285.257 250.87 285.257 250.87C285.257 250.87 301.394 266.006 298.1 269.626C294.807 273.246 279.988 283.117 278.013 281.143C276.037 279.169 253.973 255.477 256.608 247.908C259.242 240.34 295.795 215.661 295.795 215.661L300.076 200.196L301.394 187.691L315.225 178.807L337.288 194.602Z" fill="#081B26"/>
<path d="M322.201 127.183C329.783 127.183 335.929 121.041 335.929 113.465C335.929 105.889 329.783 99.7474 322.201 99.7474C314.619 99.7474 308.473 105.889 308.473 113.465C308.473 121.041 314.619 127.183 322.201 127.183Z" fill="#FFB9B9"/>
<path d="M332.843 119.084C332.843 119.084 332.184 131.588 342.393 135.536C352.601 139.485 317.036 165.151 317.036 165.151V136.523C317.036 136.523 321.646 131.588 317.036 124.019L332.843 119.084Z" fill="#FFB9B9"/>
<path d="M354.742 177.82L352.107 190.653L344.204 234.746C344.204 234.746 350.79 253.502 341.899 253.173C333.007 252.844 337.288 232.772 337.288 232.772L341.899 196.247V182.098L354.742 177.82Z" fill="#FFB9B9"/>
<path d="M298.101 171.568L295.137 183.085L281.635 215.661C281.635 215.661 272.415 231.127 279.989 230.798C287.563 230.469 287.563 215.661 287.563 215.661L303.04 189.337V174.529L298.101 171.568Z" fill="#FFB9B9"/>
<path d="M295.795 267.652L306.663 277.852C306.663 277.852 314.237 276.207 317.201 285.092C320.164 293.976 322.14 299.57 322.14 299.57L318.189 301.873L313.249 294.963C313.249 294.963 310.285 307.467 307.321 308.455C304.358 309.442 289.539 316.023 290.856 308.455L298.101 297.925C298.101 297.925 299.089 286.079 296.125 285.092C293.161 284.104 285.258 274.233 285.258 274.233L295.795 267.652Z" fill="#081B26"/>
<path d="M337.811 204.802C337.811 204.802 306.855 193.614 304.88 194.602C303.409 195.251 301.842 195.657 300.241 195.805L300.269 191.311C300.269 191.311 310.478 187.691 316.076 189.995C321.674 192.298 338.798 202.499 338.798 202.499L337.811 204.802Z" fill="#193647"/>
<path d="M319.012 158.57C319.012 158.57 327.903 148.369 330.538 142.117C332.204 138.327 335.264 135.321 339.084 133.72C339.084 133.72 358.858 138.169 358.529 146.066C358.2 153.963 346.015 166.138 346.015 166.138C346.015 166.138 347.662 209.903 338.77 209.245C336.853 206.958 335.499 204.253 334.819 201.347C333.831 196.741 303.205 191.805 303.205 191.805C303.205 191.805 300.57 196.411 300.241 194.437C299.912 192.463 302.876 144.092 302.876 144.092L318.579 133.72L319.012 158.57Z" fill="#D0CDE1"/>
<path d="M355.992 142.887L356.213 143.011C356.916 143.406 357.502 143.98 357.91 144.676C358.318 145.372 358.533 146.164 358.532 146.971L358.529 171.391C358.532 172.054 358.679 172.71 358.96 173.311C359.241 173.912 359.65 174.445 360.158 174.873C361.427 175.951 362.603 177.505 360.175 178.313C356.224 179.63 340.746 186.211 340.417 183.907C340.087 181.604 339.429 178.972 340.417 178.972C341.19 178.972 345.798 155.376 349.501 145.287C349.727 144.669 350.085 144.108 350.55 143.642C351.014 143.176 351.574 142.817 352.192 142.589C352.809 142.36 353.469 142.269 354.125 142.32C354.781 142.372 355.418 142.565 355.992 142.887Z" fill="#D0CDE1"/>
<path d="M307.321 142.94L302.711 144.256L297.442 166.961C297.442 166.961 291.185 168.277 293.161 170.581C295.137 172.884 303.37 178.807 303.37 178.807L307.321 142.94Z" fill="#D0CDE1"/>
<path d="M333.721 96.3673C332.689 94.982 331.351 93.8531 329.811 93.068C328.272 92.2829 326.572 91.8629 324.844 91.8404H324.422C316.301 91.8404 309.718 99.1833 309.718 108.241V108.241H312.439L312.879 104.899L313.523 108.241H329.662L331.014 105.414L330.676 108.241H333.851C335.332 115.593 333.204 122.945 327.465 130.298H332.873L335.577 124.642L334.901 130.298H345.211L347.239 117.29C347.239 107.548 341.575 99.2879 333.721 96.3673Z" fill="#081B26"/>
<path d="M57.9138 248.147C61.3782 240.61 63.8146 222.745 63.8146 201.899C63.8146 174.243 55.6969 146.72 50.4082 146.72H34.4482V349.574H50.4082V257.078H114.248V349.574H130.208V248.147H57.9138ZM50.4082 247.796C50.4599 247.914 50.5113 248.034 50.5634 248.147H50.4082V247.796Z" fill="#193647"/>
<path d="M124.436 211.14C124.436 211.14 143.657 219.104 137.563 223.788C131.468 228.473 118.811 218.167 119.28 216.762C119.748 215.356 117.404 212.077 117.404 212.077L124.436 211.14Z" fill="#9F616A"/>
<path d="M107.56 148.369L113.654 153.99L115.06 170.386L119.749 187.718C119.749 187.718 127.718 204.114 126.312 207.393C124.905 210.672 127.718 211.609 127.718 211.609L116.936 215.825C116.936 215.825 105.216 202.708 105.216 199.898C105.216 197.087 107.56 148.369 107.56 148.369Z" fill="#EA4C4C"/>
<path opacity="0.1" d="M107.56 148.369L113.654 153.99L115.06 170.386L119.749 187.718C119.749 187.718 127.718 204.114 126.312 207.393C124.905 210.672 127.718 211.609 127.718 211.609L116.936 215.825C116.936 215.825 105.216 202.708 105.216 199.898C105.216 197.087 107.56 148.369 107.56 148.369Z" fill="black"/>
<path d="M165.223 317.008C165.223 317.008 162.879 327.783 162.41 328.72C161.941 329.656 171.317 332.936 171.317 332.936L182.568 324.972C182.568 324.972 177.88 314.666 177.88 312.793L165.223 317.008Z" fill="#EA4C4C"/>
<path d="M103.809 212.077L107.091 215.825C107.091 215.825 175.068 224.257 176.474 237.373C177.88 250.49 187.725 312.324 182.1 314.198C176.474 316.072 161.941 323.098 161.941 319.351C161.941 315.603 152.565 264.074 154.44 254.706C154.44 254.706 73.3368 244.4 71.4616 232.689C69.5864 220.978 73.3368 215.825 73.3368 215.825L103.809 212.077Z" fill="#081B26"/>
<path opacity="0.1" d="M103.809 212.077L107.091 215.825C107.091 215.825 175.068 224.257 176.474 237.373C177.88 250.49 187.725 312.324 182.1 314.198C176.474 316.072 161.941 323.098 161.941 319.351C161.941 315.603 152.565 264.074 154.44 254.706C154.44 254.706 73.3368 244.4 71.4616 232.689C69.5864 220.978 73.3368 215.825 73.3368 215.825L103.809 212.077Z" fill="black"/>
<path d="M164.285 327.783C164.285 327.783 162.41 323.567 161.472 324.972C160.534 326.377 157.253 342.773 160.534 342.773C163.816 342.773 193.82 350.268 198.039 349.331C202.258 348.394 210.228 349.799 209.29 345.115C208.353 340.431 203.664 339.962 203.664 339.962C203.664 339.962 186.319 329.656 185.381 324.503C184.443 319.351 179.287 322.161 179.287 322.161V325.44C179.287 325.44 169.442 332.935 164.285 327.783Z" fill="#081B26"/>
<path d="M75.2121 112.767C75.2121 112.767 78.4937 128.694 71.4616 130.1C64.4295 131.505 80.3689 140.874 80.3689 140.874L90.6826 146.495L98.1835 139C98.1835 139 91.3858 125.181 96.5427 114.875C101.7 104.57 75.2121 112.767 75.2121 112.767Z" fill="#9F616A"/>
<path d="M98.1835 139L90.6826 146.495L80.3689 140.874C80.3689 140.874 64.4295 131.505 71.4616 130.1C75.9856 129.196 76.2387 122.282 75.8496 117.466C75.7226 115.889 75.5098 114.321 75.2121 112.767C75.2121 112.767 101.7 104.57 96.5427 114.875C95.7592 116.467 95.2157 118.165 94.93 119.916C93.3501 129.177 98.1835 139 98.1835 139Z" fill="#9F616A"/>
<path d="M124.437 330.593V341.367H142.251L143.658 337.151L141.782 325.909L124.437 330.593Z" fill="#EA4C4C"/>
<path d="M50.834 221.446C50.834 221.446 50.834 249.084 62.0853 250.021C73.3366 250.958 113.654 256.111 113.654 256.111C113.654 256.111 115.998 302.018 120.217 317.008C124.436 331.999 120.686 332.935 124.436 333.872C128.187 334.809 144.126 331.53 143.657 328.251C143.189 324.972 141.313 242.058 141.313 242.058C141.313 242.058 145.533 224.257 89.276 215.825L50.834 221.446Z" fill="#081B26"/>
<path d="M125.843 338.088C125.843 338.088 123.03 331.999 122.561 333.872C122.092 335.746 116.467 352.142 122.092 353.547C127.718 354.952 145.533 362.447 157.253 361.979C168.973 361.511 170.379 361.042 170.379 361.042C170.379 361.042 173.661 356.358 169.442 353.547C165.222 350.736 147.877 334.341 146.939 332.467C146.001 330.593 138.969 329.188 138.969 332.467C138.969 335.746 129.124 342.304 125.843 338.088Z" fill="#081B26"/>
<path opacity="0.1" d="M96.5426 114.875C95.759 116.467 95.2156 118.165 94.9299 119.916C92.5952 121.326 91.0341 120.965 88.1041 120.965C83.7582 120.965 82.0049 115.414 79.1968 112.533C78.9764 109.858 75.2119 112.767 75.2119 112.767C75.2119 112.767 101.699 104.57 96.5426 114.875Z" fill="black"/>
<path d="M86.932 120.731C95.4762 120.731 102.403 113.81 102.403 105.272C102.403 96.7348 95.4762 89.8137 86.932 89.8137C78.3878 89.8137 71.4614 96.7348 71.4614 105.272C71.4614 113.81 78.3878 120.731 86.932 120.731Z" fill="#9F616A"/>
<path d="M113.654 153.99C113.654 153.99 111.31 170.854 109.904 176.944C108.497 183.034 106.622 211.14 105.684 214.888C104.747 218.635 99.121 219.572 87.8697 218.167C87.1634 218.078 86.453 218.025 85.7413 218.008C78.8124 217.788 70.8849 220.378 63.5481 222.411C59.3288 223.582 55.3018 224.566 51.7717 224.725C46.4273 224.969 44.8615 219.048 45.0443 212.639C45.2178 206.676 46.9102 200.282 48.49 198.024C51.3357 193.958 48.5369 157.452 49.5871 145.413V145.409C49.7464 143.572 49.9949 142.307 50.3653 141.811C53.1781 138.063 71.4615 128.694 73.5102 129.074C75.5542 129.453 93.0266 140.406 93.0266 140.406C97.2458 140.406 97.1098 135.834 97.1098 135.834C97.1098 135.834 100.059 141.342 105.684 142.748C111.31 144.153 113.654 153.99 113.654 153.99Z" fill="#EA4C4C"/>
<path d="M82.3155 214.721C82.3155 214.721 112.514 215.681 107.224 219.266C101.934 222.851 78.4935 226.131 78.0247 221.446C77.5559 216.762 82.3155 214.721 82.3155 214.721Z" fill="#9F616A"/>
<path opacity="0.1" d="M85.7412 218.008C85.8396 219.807 80.9969 223.859 79.4311 226.599C78.5638 228.117 71.8505 226.117 63.5479 222.411C57.1767 219.554 50.9961 216.29 45.0442 212.639C45.2176 206.676 46.91 200.282 48.4899 198.024C51.3356 193.958 48.5368 157.452 49.587 145.413V145.409C49.8373 145.281 50.0976 145.175 50.3651 145.09H55.9908C75.2118 153.99 53.178 192.403 53.178 192.403C53.178 192.403 82.2439 216.293 85.0567 217.23C85.2412 217.265 85.4087 217.361 85.5327 217.501C85.6567 217.642 85.7301 217.821 85.7412 218.008Z" fill="black"/>
<path d="M55.9909 142.279H50.3652C50.3652 142.279 45.2084 143.685 40.9891 153.054C36.7699 162.422 21.2993 191.466 34.8946 202.708C48.49 213.951 77.5559 227.067 79.4311 223.788C81.3064 220.509 87.8696 215.356 85.0568 214.42C82.244 213.483 53.178 189.592 53.178 189.592C53.178 189.592 75.2119 151.18 55.9909 142.279Z" fill="#EA4C4C"/>
<path d="M84.552 98.0791C84.552 98.0791 85.2309 88.688 93.6065 92.5172C101.982 96.3463 101.435 85.7919 98.9044 83.9268C96.3734 82.0617 96.4536 81.6002 87.1965 82.848C77.9395 84.0959 59.9675 86.2102 65.7786 104.809C71.5898 123.408 76.8528 118.623 76.8528 118.623C76.8528 118.623 72.2336 101.887 76.9139 105.075L81.5942 108.264L84.064 107.741L84.552 98.0791Z" fill="#081B26"/>
<path d="M430.146 233.306C430.146 224.851 367.265 217.996 289.698 217.996C212.131 217.996 149.25 224.851 149.25 233.306C149.25 236.583 158.701 239.619 174.786 242.11V346.853H182.447V243.19C208.21 246.508 246.693 248.616 289.698 248.616C333.058 248.616 371.824 246.473 397.587 243.107V346.853H405.248V242.009C420.943 239.538 430.146 236.539 430.146 233.306Z" fill="#193647"/>
<path d="M307.293 233.626C323.087 233.626 335.89 230.48 335.89 226.599C335.89 222.718 323.087 219.572 307.293 219.572C291.499 219.572 278.696 222.718 278.696 226.599C278.696 230.48 291.499 233.626 307.293 233.626Z" fill="#F2F2F2"/>
<path d="M307.293 232.359C320.239 232.359 330.733 229.78 330.733 226.599C330.733 223.418 320.239 220.839 307.293 220.839C294.347 220.839 283.853 223.418 283.853 226.599C283.853 229.78 294.347 232.359 307.293 232.359Z" fill="#D0CDE1"/>
<path d="M200.874 239.247C216.668 239.247 229.471 236.101 229.471 232.22C229.471 228.34 216.668 225.194 200.874 225.194C185.08 225.194 172.277 228.34 172.277 232.22C172.277 236.101 185.08 239.247 200.874 239.247Z" fill="#F2F2F2"/>
<path d="M200.874 237.98C213.82 237.98 224.314 235.401 224.314 232.22C224.314 229.039 213.82 226.461 200.874 226.461C187.928 226.461 177.434 229.039 177.434 232.22C177.434 235.401 187.928 237.98 200.874 237.98Z" fill="#D0CDE1"/>
<path d="M306.627 226.103C314.157 226.103 320.26 225.14 320.26 223.952C320.26 222.764 314.157 221.801 306.627 221.801C299.098 221.801 292.994 222.764 292.994 223.952C292.994 225.14 299.098 226.103 306.627 226.103Z" fill="#9F616A"/>
<path d="M299.363 223.145C301.74 223.145 303.668 222.102 303.668 220.815C303.668 219.528 301.74 218.485 299.363 218.485C296.985 218.485 295.057 219.528 295.057 220.815C295.057 222.102 296.985 223.145 299.363 223.145Z" fill="#F25C5C"/>
<path d="M297.748 223.145C300.126 223.145 302.053 222.102 302.053 220.815C302.053 219.528 300.126 218.485 297.748 218.485C295.37 218.485 293.443 219.528 293.443 220.815C293.443 222.102 295.37 223.145 297.748 223.145Z" fill="#F25C5C"/>
<path d="M316.583 223.683C318.961 223.683 320.888 222.64 320.888 221.353C320.888 220.066 318.961 219.023 316.583 219.023C314.206 219.023 312.278 220.066 312.278 221.353C312.278 222.64 314.206 223.683 316.583 223.683Z" fill="#F25C5C"/>
<path d="M306.717 223.145C309.095 223.145 311.022 222.102 311.022 220.815C311.022 219.528 309.095 218.485 306.717 218.485C304.34 218.485 302.412 219.528 302.412 220.815C302.412 222.102 304.34 223.145 306.717 223.145Z" fill="#F25C5C"/>
<path d="M314.072 223.145C316.449 223.145 318.377 222.102 318.377 220.815C318.377 219.528 316.449 218.485 314.072 218.485C311.694 218.485 309.767 219.528 309.767 220.815C309.767 222.102 311.694 223.145 314.072 223.145Z" fill="#F25C5C"/>
<path d="M319.633 219.381C311.852 222.02 303.122 222.02 293.443 219.381V219.018C293.441 216.275 294.495 213.637 296.386 211.648C298.277 209.66 300.86 208.474 303.602 208.336C305.909 208.22 308.221 208.223 310.528 208.345C312.994 208.488 315.312 209.57 317.006 211.368C318.699 213.166 319.639 215.543 319.633 218.012V219.381Z" fill="#193647"/>
<path d="M315.813 229.259C310.063 229.839 304.269 229.839 298.519 229.259C297.155 229.125 295.889 228.49 294.968 227.476C294.046 226.462 293.535 225.142 293.533 223.773H320.799C320.797 225.142 320.285 226.462 319.364 227.476C318.442 228.49 317.177 229.125 315.813 229.259Z" fill="#193647"/>
<path d="M302.95 211.674C302.325 211.934 301.654 212.068 300.977 212.068C300.3 212.068 299.629 211.934 299.004 211.674C299.629 211.413 300.3 211.279 300.977 211.279C301.654 211.279 302.325 211.413 302.95 211.674Z" fill="#D0CDE1"/>
<path d="M306.897 213.287C306.271 213.547 305.601 213.681 304.923 213.681C304.246 213.681 303.575 213.547 302.95 213.287C303.575 213.027 304.246 212.893 304.923 212.893C305.601 212.893 306.271 213.027 306.897 213.287Z" fill="#D0CDE1"/>
<path d="M307.255 210.419C306.63 210.679 305.959 210.813 305.282 210.813C304.605 210.813 303.934 210.679 303.309 210.419C303.934 210.159 304.605 210.025 305.282 210.025C305.959 210.025 306.63 210.159 307.255 210.419Z" fill="#D0CDE1"/>
<path d="M314.61 210.419C313.985 210.679 313.314 210.813 312.637 210.813C311.959 210.813 311.289 210.679 310.664 210.419C311.289 210.159 311.959 210.025 312.637 210.025C313.314 210.025 313.985 210.159 314.61 210.419Z" fill="#D0CDE1"/>
<path d="M312.637 212.032C312.012 212.293 311.341 212.427 310.664 212.427C309.986 212.427 309.316 212.293 308.69 212.032C309.316 211.772 309.986 211.638 310.664 211.638C311.341 211.638 312.012 211.772 312.637 212.032Z" fill="#D0CDE1"/>
<path d="M200.677 231.724C208.207 231.724 214.311 230.761 214.311 229.573C214.311 228.385 208.207 227.422 200.677 227.422C193.148 227.422 187.044 228.385 187.044 229.573C187.044 230.761 193.148 231.724 200.677 231.724Z" fill="#9F616A"/>
<path d="M193.413 228.767C195.79 228.767 197.718 227.723 197.718 226.437C197.718 225.15 195.79 224.106 193.413 224.106C191.035 224.106 189.107 225.15 189.107 226.437C189.107 227.723 191.035 228.767 193.413 228.767Z" fill="#F25C5C"/>
<path d="M191.798 228.767C194.176 228.767 196.103 227.723 196.103 226.437C196.103 225.15 194.176 224.106 191.798 224.106C189.42 224.106 187.493 225.15 187.493 226.437C187.493 227.723 189.42 228.767 191.798 228.767Z" fill="#F25C5C"/>
<path d="M210.633 229.304C213.011 229.304 214.938 228.261 214.938 226.974C214.938 225.687 213.011 224.644 210.633 224.644C208.256 224.644 206.328 225.687 206.328 226.974C206.328 228.261 208.256 229.304 210.633 229.304Z" fill="#F25C5C"/>
<path d="M200.767 228.767C203.145 228.767 205.072 227.723 205.072 226.437C205.072 225.15 203.145 224.106 200.767 224.106C198.389 224.106 196.462 225.15 196.462 226.437C196.462 227.723 198.389 228.767 200.767 228.767Z" fill="#F25C5C"/>
<path d="M208.122 228.767C210.499 228.767 212.427 227.723 212.427 226.437C212.427 225.15 210.499 224.106 208.122 224.106C205.744 224.106 203.817 225.15 203.817 226.437C203.817 227.723 205.744 228.767 208.122 228.767Z" fill="#F25C5C"/>
<path d="M213.683 225.003C205.902 227.641 197.172 227.641 187.493 225.003V224.64C187.491 221.897 188.545 219.258 190.436 217.27C192.327 215.281 194.91 214.095 197.652 213.957C199.959 213.841 202.271 213.844 204.578 213.966C207.044 214.109 209.362 215.191 211.056 216.989C212.749 218.787 213.689 221.164 213.683 223.633V225.003Z" fill="#193647"/>
<path d="M209.863 234.88C204.113 235.46 198.319 235.46 192.568 234.88C191.204 234.746 189.939 234.111 189.017 233.097C188.096 232.083 187.585 230.763 187.583 229.394H214.849C214.846 230.763 214.335 232.083 213.414 233.097C212.492 234.111 211.227 234.746 209.863 234.88Z" fill="#193647"/>
<path d="M197 217.295C196.375 217.555 195.704 217.689 195.027 217.689C194.35 217.689 193.679 217.555 193.054 217.295C193.679 217.035 194.35 216.901 195.027 216.901C195.704 216.901 196.375 217.035 197 217.295Z" fill="#D0CDE1"/>
<path d="M200.947 218.908C200.321 219.169 199.651 219.303 198.973 219.303C198.296 219.303 197.625 219.169 197 218.908C197.625 218.648 198.296 218.514 198.973 218.514C199.651 218.514 200.321 218.648 200.947 218.908Z" fill="#D0CDE1"/>
<path d="M201.305 216.04C200.68 216.301 200.009 216.435 199.332 216.435C198.655 216.435 197.984 216.301 197.359 216.04C197.984 215.78 198.655 215.646 199.332 215.646C200.009 215.646 200.68 215.78 201.305 216.04Z" fill="#D0CDE1"/>
<path d="M208.66 216.04C208.035 216.301 207.364 216.435 206.687 216.435C206.01 216.435 205.339 216.301 204.714 216.04C205.339 215.78 206.01 215.646 206.687 215.646C207.364 215.646 208.035 215.78 208.66 216.04Z" fill="#D0CDE1"/>
<path d="M206.687 217.654C206.062 217.914 205.391 218.048 204.714 218.048C204.036 218.048 203.366 217.914 202.74 217.654C203.366 217.393 204.036 217.259 204.714 217.259C205.391 217.259 206.062 217.393 206.687 217.654Z" fill="#D0CDE1"/>
<path d="M331.894 224.695L331.96 226.146L332.044 228.028C332.044 228.028 323.394 228.517 321.652 230.356C321.611 230.396 321.574 230.439 321.54 230.484L318.076 229.726L318.067 228.021C318.067 228.021 318.115 227.994 318.208 227.944C318.229 227.933 318.255 227.919 318.282 227.905C322.522 225.83 327.174 224.734 331.894 224.695Z" fill="#F25C5C"/>
<path opacity="0.1" d="M331.894 224.695L331.96 226.146C328.124 226.265 320.865 228.549 320.865 228.549L318.208 227.944C322.466 225.842 327.145 224.732 331.894 224.695Z" fill="black"/>
<path opacity="0.1" d="M318.282 227.905L320.865 228.549L321.652 230.357C321.611 230.396 321.574 230.439 321.54 230.484L318.076 229.726L318.067 228.021C318.067 228.021 318.115 227.994 318.208 227.944C318.229 227.933 318.255 227.919 318.282 227.905Z" fill="white"/>
<path d="M227.351 230.785L227.417 232.236L227.501 234.118C227.501 234.118 218.851 234.606 217.108 236.446C217.068 236.486 217.03 236.529 216.997 236.574L213.532 235.816L213.523 234.111C213.523 234.111 213.571 234.084 213.664 234.034C213.685 234.023 213.712 234.009 213.739 233.995C217.978 231.92 222.63 230.823 227.351 230.785Z" fill="#F25C5C"/>
<path opacity="0.1" d="M227.351 230.785L227.417 232.236C223.581 232.354 216.322 234.639 216.322 234.639L213.664 234.034C217.922 231.932 222.602 230.821 227.351 230.785Z" fill="black"/>
<path opacity="0.1" d="M213.738 233.995L216.322 234.639L217.108 236.446C217.068 236.486 217.031 236.528 216.997 236.574L213.532 235.816L213.523 234.111C213.523 234.111 213.571 234.084 213.664 234.034C213.685 234.023 213.712 234.009 213.738 233.995Z" fill="white"/>
<path d="M383.992 181.233C383.254 180.496 382.389 179.899 381.438 179.47V161.268C381.438 161.054 381.353 160.85 381.202 160.699C381.051 160.548 380.847 160.463 380.633 160.463H376.123C375.91 160.463 375.705 160.548 375.554 160.699C375.403 160.85 375.318 161.054 375.318 161.268V179.121C373.688 179.661 372.269 180.7 371.264 182.092C370.259 183.483 369.717 185.155 369.717 186.872V225.917C369.717 226.387 369.809 226.852 369.989 227.286C370.169 227.72 370.433 228.115 370.765 228.447C371.098 228.779 371.493 229.043 371.927 229.223C372.362 229.403 372.827 229.495 373.297 229.495H382.957C383.902 229.495 384.809 229.12 385.477 228.452C386.146 227.784 386.521 226.878 386.521 225.934V187.332C386.523 186.199 386.3 185.077 385.866 184.03C385.432 182.983 384.795 182.033 383.992 181.233Z" fill="#193647"/>
<path d="M386.521 192.595H369.717V214.777H386.521V192.595Z" fill="#F25C5C"/>
<path d="M381.801 161.707H381.438V161.268C381.438 161.054 381.353 160.85 381.202 160.699C381.051 160.548 380.847 160.463 380.633 160.463H376.123C375.91 160.463 375.705 160.548 375.554 160.699C375.403 160.85 375.318 161.054 375.318 161.268V161.707H374.955V163.573H375.318V173.109H381.438V163.573H381.801V161.707Z" fill="#F25C5C"/>
<path d="M249.44 197.032C248.995 196.083 248.644 195.412 248.521 195.182C240.978 197.042 235.945 195.47 235.151 195.192C234.763 195.924 232.34 200.606 231.361 205.094C230.476 209.142 230.99 211.856 232.887 213.161L232.943 213.201L232.956 213.209C235.05 214.588 237.048 215.809 238.894 216.839C239.142 216.977 239.377 217.105 239.597 217.224L239.62 217.237L239.637 217.258C239.89 217.577 240.126 217.909 240.344 218.254C240.751 218.824 240.999 219.492 241.06 220.19V240.297L240.933 240.3C236.121 240.398 233.143 241.213 233.143 241.912C233.143 242.679 236.714 243.533 241.839 243.533C246.963 243.533 250.534 242.679 250.534 241.912C250.534 241.223 247.607 240.413 242.877 240.304L242.749 240.301L242.868 221.701C242.871 220.442 243.164 219.2 243.724 218.072C243.82 217.883 243.922 217.698 244.029 217.524C244.115 217.385 244.206 217.248 244.3 217.119L244.317 217.096L244.342 217.082C244.579 216.952 244.831 216.812 245.097 216.661L245.128 216.644C246.875 215.659 248.757 214.503 250.722 213.208C252.477 212.052 253.088 209.716 252.539 206.264C252.015 202.973 250.564 199.427 249.44 197.032Z" fill="#D0CDE1"/>
<path d="M249.89 212.787C247.83 214.144 246.128 215.162 244.827 215.895H244.826C242.928 215.766 241.022 215.819 239.134 216.055C237.8 215.311 236.001 214.244 233.787 212.787C233.766 212.773 233.745 212.759 233.724 212.744V212.743C231.694 211.347 231.644 208.391 232.304 205.369C233.985 205.182 236.664 205.264 240.264 206.549C244.526 208.071 248.988 207.21 251.574 206.428C251.999 209.094 251.74 211.568 249.89 212.787Z" fill="#F25C5C"/>
<path d="M237.638 204.275C237.96 204.275 238.222 204.014 238.222 203.692C238.222 203.37 237.96 203.109 237.638 203.109C237.316 203.109 237.055 203.37 237.055 203.692C237.055 204.014 237.316 204.275 237.638 204.275Z" fill="#F25C5C"/>
<path d="M236.005 209.639C236.327 209.639 236.588 209.378 236.588 209.056C236.588 208.734 236.327 208.473 236.005 208.473C235.682 208.473 235.421 208.734 235.421 209.056C235.421 209.378 235.682 209.639 236.005 209.639Z" fill="white"/>
<path d="M239.038 205.441C239.232 205.441 239.388 205.285 239.388 205.091C239.388 204.898 239.232 204.742 239.038 204.742C238.845 204.742 238.688 204.898 238.688 205.091C238.688 205.285 238.845 205.441 239.038 205.441Z" fill="#F25C5C"/>
<path d="M240.439 212.087C240.632 212.087 240.789 211.931 240.789 211.738C240.789 211.544 240.632 211.388 240.439 211.388C240.245 211.388 240.089 211.544 240.089 211.738C240.089 211.931 240.245 212.087 240.439 212.087Z" fill="white"/>
<path d="M237.988 212.437C238.182 212.437 238.338 212.281 238.338 212.087C238.338 211.894 238.182 211.738 237.988 211.738C237.795 211.738 237.638 211.894 237.638 212.087C237.638 212.281 237.795 212.437 237.988 212.437Z" fill="white"/>
<path d="M245.106 200.777C245.3 200.777 245.456 200.621 245.456 200.428C245.456 200.234 245.3 200.078 245.106 200.078C244.913 200.078 244.756 200.234 244.756 200.428C244.756 200.621 244.913 200.777 245.106 200.777Z" fill="#F25C5C"/>
<path d="M276.808 178.076C276.363 177.127 276.012 176.457 275.889 176.226C268.346 178.086 263.313 176.514 262.52 176.236C262.131 176.968 259.708 181.65 258.729 186.138C257.844 190.186 258.358 192.9 260.255 194.205L260.312 194.245L260.324 194.253C262.418 195.632 264.416 196.853 266.262 197.883C266.51 198.021 266.745 198.149 266.965 198.268L266.989 198.281L267.005 198.302C267.259 198.621 267.494 198.953 267.712 199.298C268.12 199.868 268.367 200.536 268.428 201.234V221.341L268.301 221.344C263.49 221.442 260.511 222.257 260.511 222.956C260.511 223.723 264.083 224.577 269.207 224.577C274.331 224.577 277.903 223.723 277.903 222.956C277.903 222.268 274.975 221.457 270.245 221.348L270.117 221.345L270.236 202.745C270.239 201.486 270.532 200.244 271.092 199.116C271.188 198.927 271.291 198.742 271.397 198.569C271.483 198.429 271.574 198.292 271.668 198.164L271.685 198.14L271.711 198.126C271.948 197.997 272.199 197.856 272.465 197.706L272.497 197.689C274.243 196.703 276.125 195.547 278.091 194.253C279.845 193.097 280.457 190.76 279.907 187.308C279.383 184.017 277.932 180.471 276.808 178.076Z" fill="#D0CDE1"/>
<path d="M277.258 193.831C275.198 195.188 273.496 196.206 272.195 196.94H272.194C270.296 196.81 268.39 196.864 266.502 197.099C265.168 196.355 263.369 195.289 261.155 193.831C261.134 193.817 261.113 193.803 261.092 193.788V193.787C259.062 192.391 259.012 189.435 259.672 186.413C261.353 186.227 264.032 186.308 267.632 187.593C271.894 189.115 276.356 188.254 278.942 187.472C279.367 190.138 279.108 192.613 277.258 193.831Z" fill="#F25C5C"/>
<path d="M265.006 185.319C265.329 185.319 265.59 185.058 265.59 184.736C265.59 184.414 265.329 184.153 265.006 184.153C264.684 184.153 264.423 184.414 264.423 184.736C264.423 185.058 264.684 185.319 265.006 185.319Z" fill="#F25C5C"/>
<path d="M263.372 190.683C263.695 190.683 263.956 190.422 263.956 190.1C263.956 189.778 263.695 189.517 263.372 189.517C263.05 189.517 262.789 189.778 262.789 190.1C262.789 190.422 263.05 190.683 263.372 190.683Z" fill="white"/>
<path d="M266.406 186.485C266.6 186.485 266.757 186.329 266.757 186.136C266.757 185.942 266.6 185.786 266.406 185.786C266.213 185.786 266.056 185.942 266.056 186.136C266.056 186.329 266.213 186.485 266.406 186.485Z" fill="#F25C5C"/>
<path d="M267.807 193.131C268 193.131 268.157 192.975 268.157 192.782C268.157 192.588 268 192.432 267.807 192.432C267.613 192.432 267.457 192.588 267.457 192.782C267.457 192.975 267.613 193.131 267.807 193.131Z" fill="white"/>
<path d="M265.356 193.481C265.55 193.481 265.707 193.325 265.707 193.131C265.707 192.938 265.55 192.782 265.356 192.782C265.163 192.782 265.006 192.938 265.006 193.131C265.006 193.325 265.163 193.481 265.356 193.481Z" fill="white"/>
<path d="M272.474 181.821C272.668 181.821 272.824 181.665 272.824 181.472C272.824 181.278 272.668 181.122 272.474 181.122C272.281 181.122 272.124 181.278 272.124 181.472C272.124 181.665 272.281 181.821 272.474 181.821Z" fill="#F25C5C"/>
</g>
<defs>
<clipPath id="clip0">
<rect width="468" height="362" fill="white"/>
</clipPath>
</defs>
</svg>
