<svg width="128" height="26" viewBox="0 0 128 26" fill="none" xmlns="http://www.w3.org/2000/svg">
<path d="M0.0750001 2.5H8.025C9.925 2.5 11.6 2.86667 13.05 3.6C14.5167 4.31667 15.65 5.33333 16.45 6.65C17.2667 7.96667 17.675 9.5 17.675 11.25C17.675 13 17.2667 14.5333 16.45 15.85C15.65 17.1667 14.5167 18.1917 13.05 18.925C11.6 19.6417 9.925 20 8.025 20H0.0750001V2.5ZM7.825 16.675C9.575 16.675 10.9667 16.1917 12 15.225C13.05 14.2417 13.575 12.9167 13.575 11.25C13.575 9.58333 13.05 8.26667 12 7.3C10.9667 6.31667 9.575 5.825 7.825 5.825H4.125V16.675H7.825ZM33.5793 10.9C34.5793 11.2167 35.3626 11.75 35.9293 12.5C36.496 13.2333 36.7793 14.1417 36.7793 15.225C36.7793 16.7583 36.1793 17.9417 34.9793 18.775C33.796 19.5917 32.0626 20 29.7793 20H20.7293V2.5H29.2793C31.4126 2.5 33.046 2.90833 34.1793 3.725C35.3293 4.54167 35.9043 5.65 35.9043 7.05C35.9043 7.9 35.696 8.65833 35.2793 9.325C34.8793 9.99167 34.3126 10.5167 33.5793 10.9ZM24.7543 5.55V9.675H28.7793C29.7793 9.675 30.5376 9.5 31.0543 9.15C31.571 8.8 31.8293 8.28333 31.8293 7.6C31.8293 6.91667 31.571 6.40833 31.0543 6.075C30.5376 5.725 29.7793 5.55 28.7793 5.55H24.7543ZM29.4793 16.95C30.546 16.95 31.346 16.775 31.8793 16.425C32.4293 16.075 32.7043 15.5333 32.7043 14.8C32.7043 13.35 31.6293 12.625 29.4793 12.625H24.7543V16.95H29.4793ZM45.9705 20.2C44.5538 20.2 43.2788 19.9083 42.1455 19.325C41.0288 18.725 40.1538 17.9 39.5205 16.85C38.8872 15.8 38.5705 14.6083 38.5705 13.275C38.5705 11.9417 38.8872 10.75 39.5205 9.7C40.1538 8.65 41.0288 7.83333 42.1455 7.25C43.2788 6.65 44.5538 6.35 45.9705 6.35C47.3872 6.35 48.6538 6.65 49.7705 7.25C50.8872 7.83333 51.7622 8.65 52.3955 9.7C53.0288 10.75 53.3455 11.9417 53.3455 13.275C53.3455 14.6083 53.0288 15.8 52.3955 16.85C51.7622 17.9 50.8872 18.725 49.7705 19.325C48.6538 19.9083 47.3872 20.2 45.9705 20.2ZM45.9705 17C46.9705 17 47.7872 16.6667 48.4205 16C49.0705 15.3167 49.3955 14.4083 49.3955 13.275C49.3955 12.1417 49.0705 11.2417 48.4205 10.575C47.7872 9.89167 46.9705 9.55 45.9705 9.55C44.9705 9.55 44.1455 9.89167 43.4955 10.575C42.8455 11.2417 42.5205 12.1417 42.5205 13.275C42.5205 14.4083 42.8455 15.3167 43.4955 16C44.1455 16.6667 44.9705 17 45.9705 17ZM62.3523 20.2C60.9357 20.2 59.6607 19.9083 58.5273 19.325C57.4107 18.725 56.5357 17.9 55.9023 16.85C55.269 15.8 54.9523 14.6083 54.9523 13.275C54.9523 11.9417 55.269 10.75 55.9023 9.7C56.5357 8.65 57.4107 7.83333 58.5273 7.25C59.6607 6.65 60.9357 6.35 62.3523 6.35C63.769 6.35 65.0357 6.65 66.1523 7.25C67.269 7.83333 68.144 8.65 68.7773 9.7C69.4107 10.75 69.7273 11.9417 69.7273 13.275C69.7273 14.6083 69.4107 15.8 68.7773 16.85C68.144 17.9 67.269 18.725 66.1523 19.325C65.0357 19.9083 63.769 20.2 62.3523 20.2ZM62.3523 17C63.3523 17 64.169 16.6667 64.8023 16C65.4523 15.3167 65.7773 14.4083 65.7773 13.275C65.7773 12.1417 65.4523 11.2417 64.8023 10.575C64.169 9.89167 63.3523 9.55 62.3523 9.55C61.3523 9.55 60.5273 9.89167 59.8773 10.575C59.2273 11.2417 58.9023 12.1417 58.9023 13.275C58.9023 14.4083 59.2273 15.3167 59.8773 16C60.5273 16.6667 61.3523 17 62.3523 17ZM78.1092 14.725L76.2342 16.575V20H72.3342V1.45H76.2342V11.95L81.9342 6.55H86.5842L80.9842 12.25L87.0842 20H82.3592L78.1092 14.725ZM88.7404 6.55H92.6404V20H88.7404V6.55ZM90.6904 4.675C89.9738 4.675 89.3904 4.46667 88.9404 4.05C88.4904 3.63333 88.2654 3.11667 88.2654 2.5C88.2654 1.88333 88.4904 1.36667 88.9404 0.949999C89.3904 0.533332 89.9738 0.324998 90.6904 0.324998C91.4071 0.324998 91.9904 0.524999 92.4404 0.925C92.8904 1.325 93.1154 1.825 93.1154 2.425C93.1154 3.075 92.8904 3.61667 92.4404 4.05C91.9904 4.46667 91.4071 4.675 90.6904 4.675ZM104.435 6.35C106.102 6.35 107.443 6.85 108.46 7.85C109.493 8.85 110.01 10.3333 110.01 12.3V20H106.11V12.9C106.11 11.8333 105.877 11.0417 105.41 10.525C104.943 9.99167 104.268 9.725 103.385 9.725C102.402 9.725 101.618 10.0333 101.035 10.65C100.452 11.25 100.16 12.15 100.16 13.35V20H96.26V6.55H99.985V8.125C100.502 7.55833 101.143 7.125 101.91 6.825C102.677 6.50833 103.518 6.35 104.435 6.35ZM127.567 6.55V17.75C127.567 20.2167 126.925 22.05 125.642 23.25C124.358 24.45 122.483 25.05 120.017 25.05C118.717 25.05 117.483 24.8917 116.317 24.575C115.15 24.2583 114.183 23.8 113.417 23.2L114.967 20.4C115.533 20.8667 116.25 21.2333 117.117 21.5C117.983 21.7833 118.85 21.925 119.717 21.925C121.067 21.925 122.058 21.6167 122.692 21C123.342 20.4 123.667 19.4833 123.667 18.25V17.675C122.65 18.7917 121.233 19.35 119.417 19.35C118.183 19.35 117.05 19.0833 116.017 18.55C115 18 114.192 17.2333 113.592 16.25C112.992 15.2667 112.692 14.1333 112.692 12.85C112.692 11.5667 112.992 10.4333 113.592 9.45C114.192 8.46667 115 7.70833 116.017 7.175C117.05 6.625 118.183 6.35 119.417 6.35C121.367 6.35 122.85 6.99167 123.867 8.275V6.55H127.567ZM120.192 16.15C121.225 16.15 122.067 15.85 122.717 15.25C123.383 14.6333 123.717 13.8333 123.717 12.85C123.717 11.8667 123.383 11.075 122.717 10.475C122.067 9.85833 121.225 9.55 120.192 9.55C119.158 9.55 118.308 9.85833 117.642 10.475C116.975 11.075 116.642 11.8667 116.642 12.85C116.642 13.8333 116.975 14.6333 117.642 15.25C118.308 15.85 119.158 16.15 120.192 16.15Z" fill="#081b26"/>
</svg>
