<svg width="512" height="512" viewBox="0 0 512 512" fill="none" xmlns="http://www.w3.org/2000/svg">
<path d="M495.157 178.296C484.454 169.71 470.631 166.493 457.238 169.47L422 177.301V90H334.699L342.53 54.762C345.508 41.367 342.291 27.546 333.705 16.843C325.119 6.14 312.323 0 298.602 0H213.399C199.677 0 186.883 6.139 178.297 16.842C169.711 27.545 166.494 41.367 169.471 54.761L177.301 90H90V177.301L54.762 169.47C41.367 166.491 27.546 169.71 16.843 178.296C6.14 186.882 0 199.677 0 213.398V298.601C0 312.323 6.139 325.117 16.842 333.703C24.931 340.192 34.8 343.614 44.921 343.614C48.192 343.614 51.489 343.257 54.761 342.529L90 334.699V422H177.301L169.47 457.238C166.493 470.633 169.71 484.454 178.296 495.157C186.882 505.86 199.677 512 213.398 512H298.601C312.323 512 325.118 505.861 333.704 495.157C342.29 484.453 345.507 470.632 342.529 457.238L334.699 422H422V334.699L457.238 342.53C460.51 343.258 463.806 343.615 467.079 343.615C477.198 343.615 487.069 340.192 495.157 333.704C505.861 325.118 512 312.324 512 298.602V213.399C512 199.677 505.861 186.882 495.157 178.296ZM90 303.967L48.254 313.245C43.788 314.236 39.182 313.164 35.614 310.303C32.046 307.44 30 303.176 30 298.602V271H90V303.967ZM90 241H30V213.398C30 208.824 32.046 204.56 35.614 201.698C38.31 199.535 41.6 198.394 44.973 198.394C46.063 198.394 47.162 198.513 48.253 198.755L90 208.033V241ZM271 30H298.602C303.176 30 307.44 32.046 310.303 35.614C313.164 39.182 314.237 43.788 313.244 48.254L303.968 90H271V30ZM201.697 35.614C204.56 32.046 208.824 30 213.398 30H241V90H208.033L198.755 48.254C197.763 43.789 198.835 39.182 201.697 35.614ZM241 482H213.398C208.824 482 204.56 479.954 201.698 476.386C198.836 472.818 197.763 468.211 198.756 463.746L208.033 422H241V482ZM310.303 476.386C307.441 479.954 303.176 482 298.602 482H271V422H303.968L313.244 463.747C314.236 468.212 313.164 472.818 310.303 476.386ZM392 392H120V120H392V392ZM482 298.602C482 303.176 479.954 307.44 476.386 310.302C472.819 313.164 468.214 314.237 463.746 313.244L422 303.967V271H482V298.602ZM482 241H422V208.033L463.746 198.755C468.212 197.764 472.817 198.835 476.386 201.697C479.954 204.559 482 208.823 482 213.398V241V241Z" fill="#C14545"/>
</svg>
